<?xml version="1.0" encoding="UTF-8"?>
<svg width="80" height="80" viewBox="0 0 80 80" fill="none" xmlns="http://www.w3.org/2000/svg">
  <circle cx="40" cy="40" r="36" fill="#F3F5F6"/>
  <path d="M40 16C26.7452 16 16 26.7452 16 40C16 53.2548 26.7452 64 40 64C53.2548 64 64 53.2548 64 40C64 26.7452 53.2548 16 40 16Z" fill="#F3F5F6" stroke="#F50031" stroke-width="2"/>
  <path d="M40 30C37.7909 30 36 31.7909 36 34V40H30C27.7909 40 26 41.7909 26 44C26 46.2091 27.7909 48 30 48H36V54C36 56.2091 37.7909 58 40 58C42.2091 58 44 56.2091 44 54V48H50C52.2091 48 54 46.2091 54 44C54 41.7909 52.2091 40 50 40H44V34C44 31.7909 42.2091 30 40 30Z" fill="#F50031"/>
  <path d="M40 22C35.7565 22 31.6869 23.6857 28.6863 26.6863C25.6857 29.6869 24 33.7565 24 38" stroke="#F50031" stroke-width="2" stroke-linecap="round"/>
</svg>