<?xml version="1.0" encoding="UTF-8"?>
<svg width="80" height="80" viewBox="0 0 80 80" fill="none" xmlns="http://www.w3.org/2000/svg">
  <circle cx="40" cy="40" r="36" fill="#F3F5F6"/>
  <path d="M40 18C29.4943 18 21 26.4943 21 37H59C59 26.4943 50.5057 18 40 18Z" stroke="#F50031" stroke-width="2"/>
  <path d="M21 42L25 60H55L59 42" stroke="#F50031" stroke-width="2" stroke-linecap="round"/>
  <path d="M33 24C31.3431 26.6667 31.3431 31.3333 33 34" stroke="#F50031" stroke-width="2" stroke-linecap="round"/>
  <path d="M40 22C38.3431 24.6667 38.3431 29.3333 40 32" stroke="#F50031" stroke-width="2" stroke-linecap="round"/>
  <path d="M47 24C45.3431 26.6667 45.3431 31.3333 47 34" stroke="#F50031" stroke-width="2" stroke-linecap="round"/>
  <path d="M31 51H49" stroke="#F50031" stroke-width="2" stroke-linecap="round"/>
  <path d="M34 45H46" stroke="#F50031" stroke-width="2" stroke-linecap="round"/>
  <path d="M37 57H43" stroke="#F50031" stroke-width="2" stroke-linecap="round"/>
</svg>