<?xml version="1.0" encoding="UTF-8"?>
<svg width="80" height="80" viewBox="0 0 80 80" fill="none" xmlns="http://www.w3.org/2000/svg">
  <circle cx="40" cy="40" r="36" fill="#F3F5F6"/>
  <path d="M24 44H30L36 30L44 50L50 36H56" stroke="#F50031" stroke-width="3" stroke-linecap="round" stroke-linejoin="round"/>
  <path d="M16 40C16 45.5695 17.9068 50.9613 21.3147 55.3147C24.7226 59.6681 29.4834 62.7164 34.8418 63.8545C40.2003 64.9925 45.7596 64.1519 50.5425 61.491C55.3254 58.83 58.993 54.5244 60.9933 49.3893C62.9935 44.2542 63.2038 38.6308 61.5913 33.3787C59.9788 28.1267 56.6478 23.5701 52.1488 20.5583C47.6497 17.5466 42.2709 16.2731 36.9085 16.9387C31.5462 17.6044 26.5533 20.1668 22.8284 24.1716C21.0783 26.0097 19.6316 28.1245 18.5442 30.4301" stroke="#F50031" stroke-width="2" stroke-linecap="round"/>
  <circle cx="40" cy="40" r="24" stroke="#F50031" stroke-width="2"/>
</svg>