<?xml version="1.0" encoding="UTF-8"?>
<svg width="80" height="80" viewBox="0 0 80 80" fill="none" xmlns="http://www.w3.org/2000/svg">
  <circle cx="40" cy="40" r="36" fill="#F3F5F6"/>
  <rect x="30" y="20" width="20" height="40" rx="4" stroke="#F50031" stroke-width="2"/>
  <path d="M30 28H50" stroke="#F50031" stroke-width="2"/>
  <path d="M30 52H50" stroke="#F50031" stroke-width="2"/>
  <path d="M40 36C38.8954 36 38 36.8954 38 38C38 39.1046 38.8954 40 40 40C41.1046 40 42 39.1046 42 38C42 36.8954 41.1046 36 40 36Z" fill="#F50031"/>
  <path d="M40 32V36" stroke="#F50031" stroke-width="2" stroke-linecap="round"/>
  <path d="M44 38H40" stroke="#F50031" stroke-width="2" stroke-linecap="round"/>
  <path d="M40 40V44" stroke="#F50031" stroke-width="2" stroke-linecap="round"/>
  <path d="M36 38H40" stroke="#F50031" stroke-width="2" stroke-linecap="round"/>
  <path d="M54 36C56.7614 36 59.0893 38.1299 59.0025 40.8901C58.9285 43.2306 57.0197 45.1394 54.6793 45.2134C54.4535 45.2222 54.2335 45.1793 54.0312 45.0907C53.829 45.0022 53.6493 44.8705 53.5053 44.7053C53.3614 44.5401 53.257 44.3454 53.2002 44.1346C53.1435 43.9238 53.1359 43.7026 53.1781 43.488C53.2203 43.2735 53.3112 43.0718 53.4439 42.8985C53.5767 42.7252 53.7478 42.5848 53.9444 42.4887C54.1409 42.3925 54.3574 42.343 54.5766 42.3439C54.7959 42.3448 55.0119 42.396 55.2076 42.4938C55.9012 42.0429 55.9215 40.9472 55.1827 40.376C54.4439 39.8048 53.3482 40.0251 52.8973 40.7187C52.4465 41.4123 52.6668 42.508 53.3604 42.9588C53.4661 43.0332 53.5818 43.0894 53.7024 43.1344" stroke="#F50031" stroke-width="2" stroke-linecap="round"/>
</svg>