<svg xmlns="http://www.w3.org/2000/svg" width="100" height="100" viewBox="0 0 100 100">
  <circle cx="50" cy="50" r="45" fill="#F2D65E"/>
  <g fill="#4A4A9E">
    <path d="M50 12.5L54.9 22.5L65.9 24.1L57.9 31.9L59.8 42.9L50 37.7L40.2 42.9L42.1 31.9L34.1 24.1L45.1 22.5L50 12.5Z"/>
    <path d="M72.5 50L82.5 54.9L84.1 65.9L91.9 57.9L102.9 59.8L97.7 50L102.9 40.2L91.9 42.1L84.1 34.1L82.5 45.1L72.5 50Z"/>
    <path d="M50 72.5L45.1 82.5L34.1 84.1L42.1 91.9L40.2 102.9L50 97.7L59.8 102.9L57.9 91.9L65.9 84.1L54.9 82.5L50 72.5Z"/>
    <path d="M27.5 50L17.5 45.1L15.9 34.1L8.1 42.1L-2.9 40.2L2.3 50L-2.9 59.8L8.1 57.9L15.9 65.9L17.5 54.9L27.5 50Z"/>
  </g>
  <circle cx="50" cy="50" r="25" fill="#F2D65E"/>
  <text x="50" y="53" text-anchor="middle" font-family="Arial, sans-serif" font-weight="bold" font-size="10" fill="#4A4A9E">GDPR</text>
  <path d="M39 42C39 39.8 40.8 38 43 38H46V36H43C39.7 36 37 38.7 37 42V44C37 47.3 39.7 50 43 50H46V48H43C40.8 48 39 46.2 39 44V42Z" fill="#4A4A9E"/>
  <path d="M54 36H51V50H54C57.3 50 60 47.3 60 44V42C60 38.7 57.3 36 54 36ZM58 44C58 46.2 56.2 48 54 48H53V38H54C56.2 38 58 39.8 58 42V44Z" fill="#4A4A9E"/>
</svg>