<svg xmlns="http://www.w3.org/2000/svg" width="100" height="100" viewBox="0 0 100 100">
  <circle cx="50" cy="50" r="45" fill="#51C1B2"/>
  <text x="50" y="55" text-anchor="middle" font-family="Arial, sans-serif" font-weight="bold" font-size="18" fill="#FFFFFF">GMP</text>
  <path d="M30 36V50H34V45H38C41.3 45 44 42.3 44 39C44 35.7 41.3 33 38 33H30ZM34 36H38C39.1 36 40 36.9 40 38V40C40 41.1 39.1 42 38 42H34V36Z" fill="#FFFFFF"/>
  <path d="M48 36H52L58 50H54L52.8 47H47.2L46 50H42L48 36ZM48.8 44H51.2L50 41L48.8 44Z" fill="#FFFFFF"/>
  <path d="M60 36H64V47H70V50H60V36Z" fill="#FFFFFF"/>
</svg>