<svg xmlns="http://www.w3.org/2000/svg" width="100" height="100" viewBox="0 0 100 100">
  <circle cx="50" cy="50" r="45" fill="#662D91"/>
  <text x="50" y="55" text-anchor="middle" font-family="Arial, sans-serif" font-weight="bold" font-size="20" fill="#FFFFFF">PCI</text>
  <path d="M50 25C36.2 25 25 36.2 25 50C25 63.8 36.2 75 50 75C63.8 75 75 63.8 75 50C75 36.2 63.8 25 50 25ZM50 70C39 70 30 61 30 50C30 39 39 30 50 30C61 30 70 39 70 50C70 61 61 70 50 70Z" fill="#FFFFFF" fill-opacity="0.3"/>
  <path d="M53 42H47V58H53C57.4 58 61 54.4 61 50C61 45.6 57.4 42 53 42ZM53 54H51V46H53C55.2 46 57 47.8 57 50C57 52.2 55.2 54 53 54Z" fill="#FFFFFF"/>
  <path d="M40 42H36V58H40V51H45V58H49V42H45V47H40V42Z" fill="#FFFFFF"/>
</svg>