<svg width="171" height="49" viewBox="0 0 171 49" fill="none" xmlns="http://www.w3.org/2000/svg">
<path d="M33.3958 34.3611C30.9402 36.3256 27.5024 37.7989 24.0646 37.7989C16.2068 37.7989 10.8045 31.9055 10.8045 24.0477C10.8045 16.1899 16.2068 10.7876 24.0646 10.7876C27.5024 10.7876 30.9402 11.7699 33.3958 14.2254L34.8691 15.6988L42.7269 8.33206L40.7625 6.85872C36.3425 2.9298 30.4491 0.474243 24.0646 0.474243C10.3134 0.474243 0 10.7876 0 24.5388C0 38.29 10.3134 48.6034 24.0646 48.6034C30.4491 48.6034 36.3425 46.1479 40.7625 42.219L42.7269 40.7456L34.8691 32.8878L33.3958 34.3611Z" fill="#181016"/>
<path d="M23.5735 32.3968C27.9133 32.3968 31.4314 28.8787 31.4314 24.539C31.4314 20.1992 27.9133 16.6812 23.5735 16.6812C19.2338 16.6812 15.7157 20.1992 15.7157 24.539C15.7157 28.8787 19.2338 32.3968 23.5735 32.3968Z" fill="#181016"/>
<path d="M68.3184 0.762392L70.3688 4.93915C70.4654 5.14003 70.6097 5.31425 70.789 5.44661C70.9684 5.57897 71.1774 5.66547 71.3978 5.69855L75.9846 6.36684C76.2371 6.40406 76.4742 6.51104 76.6692 6.67573C76.8642 6.84042 77.0093 7.05628 77.0883 7.299C77.1672 7.54172 77.1768 7.80166 77.116 8.04954C77.0552 8.29742 76.9264 8.5234 76.744 8.70202L73.4292 11.9333C73.273 12.0896 73.1568 12.2814 73.0907 12.4923C73.0246 12.7032 73.0105 12.927 73.0495 13.1446L73.8317 17.701C73.8756 17.9529 73.848 18.212 73.7519 18.449C73.6559 18.6859 73.4954 18.8912 73.2885 19.0415C73.0817 19.1918 72.8369 19.281 72.5819 19.2991C72.3268 19.3172 72.0718 19.2635 71.8459 19.1439L67.745 16.9872C67.5488 16.8844 67.3306 16.8307 67.109 16.8307C66.8875 16.8307 66.6693 16.8844 66.473 16.9872L62.3722 19.1439C62.1461 19.2619 61.8915 19.3145 61.6372 19.2957C61.3828 19.2769 61.1387 19.1875 60.9323 19.0376C60.726 18.8877 60.5656 18.6832 60.4691 18.447C60.3727 18.2109 60.344 17.9525 60.3864 17.701L61.1686 13.1446C61.2076 12.927 61.1935 12.7032 61.1274 12.4923C61.0612 12.2814 60.9451 12.0896 60.7889 11.9333L57.474 8.70202C57.2903 8.52401 57.1602 8.298 57.0985 8.04971C57.0369 7.80142 57.0461 7.54081 57.1252 7.29752C57.2044 7.05423 57.3502 6.83802 57.5461 6.67349C57.742 6.50897 57.9801 6.40272 58.2334 6.36684L62.8165 5.69855C63.0287 5.65867 63.2285 5.56905 63.3995 5.43705C63.5704 5.30504 63.7076 5.13442 63.7999 4.93915L65.8617 0.762392C65.9751 0.533479 66.1502 0.340801 66.3672 0.206091C66.5842 0.071381 66.8346 0 67.0901 0C67.3455 0 67.5959 0.071381 67.8129 0.206091C68.0299 0.340801 68.205 0.533479 68.3184 0.762392Z" fill="#181016"/>
<path d="M91.5814 0.762392L93.628 4.93915C93.726 5.13973 93.8712 5.31358 94.051 5.44583C94.2309 5.57808 94.4401 5.6648 94.6608 5.69855L99.2438 6.36684C99.4972 6.40272 99.7353 6.50897 99.9312 6.6735C100.127 6.83802 100.273 7.05423 100.352 7.29752C100.431 7.54081 100.44 7.80142 100.379 8.04971C100.317 8.298 100.187 8.52401 100.003 8.70202L96.6846 11.9333C96.5281 12.0894 96.4118 12.2812 96.3457 12.4922C96.2795 12.7032 96.2655 12.927 96.3049 13.1446L97.0871 17.701C97.1295 17.9526 97.1008 18.2109 97.0044 18.447C96.9079 18.6832 96.7475 18.8877 96.5412 19.0376C96.3348 19.1875 96.0907 19.2769 95.8363 19.2957C95.582 19.3145 95.3274 19.2619 95.1013 19.1439L91.0005 16.9872C90.8035 16.8844 90.5847 16.8307 90.3625 16.8307C90.1404 16.8307 89.9216 16.8844 89.7246 16.9872L85.6276 19.1439C85.4014 19.263 85.1464 19.3164 84.8914 19.2981C84.6364 19.2798 84.3915 19.1906 84.1846 19.0405C83.9776 18.8904 83.8168 18.6855 83.7202 18.4488C83.6236 18.2121 83.5951 17.9531 83.638 17.701L84.424 13.1446C84.463 12.927 84.4489 12.7032 84.3828 12.4923C84.3167 12.2814 84.2005 12.0896 84.0443 11.9333L80.7256 8.70202C80.5433 8.5234 80.4145 8.29742 80.3537 8.04954C80.2929 7.80166 80.3025 7.54172 80.3814 7.299C80.4603 7.05628 80.6055 6.84042 80.8005 6.67573C80.9954 6.51104 81.2325 6.40406 81.485 6.36684L86.0681 5.69855C86.289 5.66542 86.4985 5.57895 86.6784 5.44662C86.8584 5.3143 87.0034 5.14012 87.1009 4.93915L89.1247 0.762392C89.2381 0.533479 89.4132 0.340801 89.6302 0.206091C89.8472 0.071381 90.0976 0 90.3531 0C90.6085 0 90.8589 0.071381 91.0759 0.206091C91.293 0.340801 91.468 0.533479 91.5814 0.762392Z" fill="#181016"/>
<path d="M114.841 0.762307L116.891 4.93906C116.989 5.14003 117.134 5.31422 117.314 5.44654C117.494 5.57886 117.703 5.66533 117.924 5.69847L122.507 6.36675C122.76 6.40397 122.997 6.51095 123.192 6.67564C123.387 6.84034 123.532 7.0562 123.611 7.29892C123.69 7.54164 123.699 7.80157 123.638 8.04945C123.578 8.29734 123.449 8.52331 123.266 8.70194L119.948 11.9332C119.792 12.0895 119.675 12.2813 119.609 12.4923C119.543 12.7032 119.529 12.9269 119.568 13.1445L120.354 17.7009C120.397 17.953 120.368 18.212 120.272 18.4487C120.175 18.6854 120.014 18.8904 119.807 19.0404C119.601 19.1905 119.356 19.2797 119.101 19.298C118.846 19.3163 118.591 19.2629 118.364 19.1438L114.267 16.9871C114.071 16.8843 113.852 16.8306 113.63 16.8306C113.407 16.8306 113.189 16.8843 112.992 16.9871L108.891 19.1438C108.665 19.2618 108.41 19.3144 108.156 19.2956C107.901 19.2768 107.657 19.1875 107.451 19.0375C107.245 18.8876 107.084 18.6831 106.988 18.4469C106.891 18.2108 106.863 17.9525 106.905 17.7009L107.687 13.1445C107.727 12.9269 107.713 12.7031 107.646 12.4921C107.58 12.2811 107.464 12.0894 107.307 11.9332L103.989 8.70194C103.805 8.52392 103.675 8.29792 103.613 8.04963C103.552 7.80134 103.561 7.54073 103.64 7.29744C103.719 7.05414 103.865 6.83794 104.061 6.67341C104.257 6.50888 104.495 6.40263 104.748 6.36675L109.331 5.69847C109.552 5.66471 109.761 5.578 109.941 5.44575C110.121 5.3135 110.266 5.13964 110.364 4.93906L112.399 0.762307C112.514 0.537367 112.689 0.348541 112.904 0.216671C113.12 0.0848011 113.367 0.0150146 113.62 0.0150146C113.873 0.0150146 114.12 0.0848011 114.336 0.216671C114.551 0.348541 114.726 0.537367 114.841 0.762307Z" fill="#181016"/>
<path d="M161.877 0.762392L163.927 4.93915C164.024 5.14003 164.168 5.31425 164.347 5.44661C164.527 5.57897 164.736 5.66547 164.956 5.69855L169.539 6.36684C169.792 6.40272 170.03 6.50897 170.226 6.67349C170.422 6.83802 170.568 7.05423 170.647 7.29752C170.726 7.54081 170.736 7.80142 170.674 8.04971C170.612 8.298 170.482 8.52401 170.298 8.70202L166.984 11.9333C166.827 12.0896 166.711 12.2814 166.645 12.4923C166.579 12.7032 166.565 12.927 166.604 13.1446L167.386 17.701C167.428 17.9525 167.4 18.2109 167.303 18.447C167.207 18.6832 167.046 18.8877 166.84 19.0376C166.634 19.1875 166.39 19.2769 166.135 19.2957C165.881 19.3145 165.626 19.2619 165.4 19.1439L161.299 16.9872C161.103 16.8844 160.885 16.8307 160.663 16.8307C160.442 16.8307 160.224 16.8844 160.027 16.9872L155.927 19.1439C155.701 19.2635 155.446 19.3172 155.191 19.2991C154.936 19.281 154.691 19.1918 154.484 19.0415C154.277 18.8912 154.116 18.6859 154.02 18.449C153.924 18.212 153.897 17.9529 153.941 17.701L154.723 13.1446C154.762 12.927 154.748 12.7032 154.682 12.4923C154.616 12.2814 154.499 12.0896 154.343 11.9333L151.028 8.70202C150.846 8.5234 150.717 8.29742 150.656 8.04954C150.596 7.80166 150.605 7.54172 150.684 7.299C150.763 7.05628 150.908 6.84042 151.103 6.67573C151.298 6.51104 151.535 6.40406 151.788 6.36684L156.375 5.69855C156.595 5.66547 156.804 5.57897 156.983 5.44661C157.163 5.31425 157.307 5.14003 157.404 4.93915L159.42 0.762392C159.533 0.533479 159.708 0.340801 159.925 0.206091C160.142 0.071381 160.393 0 160.648 0C160.904 0 161.154 0.071381 161.371 0.206091C161.588 0.340801 161.763 0.533479 161.877 0.762392Z" fill="#181016"/>
<path d="M138.218 0.762509L140.279 4.93926C140.377 5.14024 140.522 5.31442 140.702 5.44674C140.882 5.57906 141.091 5.66554 141.312 5.69867L145.895 6.36695C146.149 6.40284 146.387 6.50908 146.583 6.67361C146.778 6.83814 146.924 7.05435 147.003 7.29764C147.083 7.54093 147.092 7.80154 147.03 8.04983C146.968 8.29812 146.838 8.52413 146.655 8.70214L143.336 11.9334C143.179 12.089 143.062 12.2807 142.996 12.4919C142.929 12.703 142.916 12.9271 142.956 13.1447L143.738 17.7011C143.781 17.9532 143.753 18.2122 143.656 18.4489C143.56 18.6856 143.399 18.8906 143.192 19.0406C142.985 19.1907 142.74 19.28 142.485 19.2982C142.23 19.3165 141.975 19.2631 141.749 19.144L137.652 16.9873C137.455 16.8845 137.236 16.8308 137.014 16.8308C136.792 16.8308 136.573 16.8845 136.376 16.9873L132.275 19.144C132.049 19.262 131.794 19.3146 131.54 19.2958C131.286 19.277 131.042 19.1877 130.835 19.0377C130.629 18.8878 130.469 18.6833 130.372 18.4471C130.276 18.211 130.247 17.9527 130.289 17.7011L131.072 13.1447C131.111 12.9271 131.097 12.7033 131.031 12.4923C130.965 12.2813 130.848 12.0896 130.692 11.9334L127.373 8.70214C127.189 8.52413 127.059 8.29812 126.998 8.04983C126.936 7.80154 126.945 7.54093 127.024 7.29764C127.104 7.05435 127.249 6.83814 127.445 6.67361C127.641 6.50908 127.879 6.40284 128.133 6.36695L132.716 5.69867C132.937 5.66554 133.146 5.57906 133.326 5.44674C133.506 5.31442 133.651 5.14024 133.748 4.93926L135.776 0.762509C135.89 0.536435 136.064 0.346431 136.28 0.213674C136.495 0.0809162 136.744 0.0106201 136.997 0.0106201C137.25 0.0106201 137.498 0.0809162 137.714 0.213674C137.929 0.346431 138.104 0.536435 138.218 0.762509Z" fill="#181016"/>
<path d="M58.0298 31.4397H60.9667C61.6329 31.4397 62.1955 31.5413 62.6546 31.7444C63.1177 31.9475 63.469 32.2481 63.7087 32.6462C63.9524 33.0402 64.0743 33.5256 64.0743 34.1025C64.0743 34.5087 63.991 34.8804 63.8245 35.2175C63.662 35.5506 63.4264 35.835 63.1177 36.0706C62.813 36.3021 62.4474 36.4748 62.0209 36.5885L61.6918 36.7165H58.9316L58.9194 35.7598H61.0033C61.4258 35.7598 61.7771 35.6867 62.0574 35.5405C62.3377 35.3902 62.5489 35.1891 62.6911 34.9373C62.8333 34.6854 62.9044 34.4071 62.9044 34.1025C62.9044 33.7612 62.8374 33.4627 62.7033 33.2068C62.5693 32.9508 62.358 32.7538 62.0696 32.6157C61.7853 32.4735 61.4176 32.4024 60.9667 32.4024H59.2058V40.3115H58.0298V31.4397ZM63.2151 40.3115L61.0581 36.29L62.2829 36.2839L64.4704 40.2384V40.3115H63.2151ZM69.0335 40.4334C68.5745 40.4334 68.1581 40.3562 67.7844 40.2018C67.4147 40.0434 67.0958 39.822 66.8277 39.5377C66.5637 39.2533 66.3606 38.9162 66.2184 38.5262C66.0762 38.1362 66.0051 37.7097 66.0051 37.2466V36.9907C66.0051 36.4545 66.0843 35.9772 66.2428 35.5588C66.4012 35.1363 66.6165 34.7788 66.8887 34.4863C67.1608 34.1939 67.4696 33.9725 67.8148 33.8222C68.1601 33.6719 68.5176 33.5967 68.8873 33.5967C69.3585 33.5967 69.7647 33.678 70.1059 33.8405C70.4512 34.0029 70.7335 34.2304 70.9529 34.5229C71.1722 34.8113 71.3347 35.1525 71.4403 35.5466C71.546 35.9365 71.5988 36.3631 71.5988 36.8262V37.3319H66.6754V36.4118H70.4715V36.3265C70.4553 36.034 70.3943 35.7497 70.2887 35.4735C70.1872 35.1972 70.0247 34.9697 69.8012 34.791C69.5778 34.6123 69.2732 34.5229 68.8873 34.5229C68.6313 34.5229 68.3957 34.5777 68.1804 34.6874C67.9651 34.793 67.7803 34.9515 67.6259 35.1627C67.4716 35.3739 67.3517 35.6319 67.2664 35.9365C67.1811 36.2412 67.1385 36.5926 67.1385 36.9907V37.2466C67.1385 37.5594 67.1811 37.8539 67.2664 38.1301C67.3558 38.4023 67.4838 38.642 67.6503 38.8491C67.8209 39.0563 68.0261 39.2188 68.2657 39.3366C68.5095 39.4544 68.7857 39.5133 69.0944 39.5133C69.4925 39.5133 69.8297 39.4321 70.1059 39.2696C70.3821 39.1071 70.6238 38.8898 70.831 38.6176L71.5135 39.1599C71.3713 39.3752 71.1905 39.5803 70.9712 39.7753C70.7518 39.9703 70.4817 40.1287 70.1607 40.2506C69.8439 40.3725 69.4681 40.4334 69.0335 40.4334ZM77.5512 39.1843V35.7903C77.5512 35.5303 77.4984 35.3049 77.3927 35.114C77.2912 34.919 77.1368 34.7687 76.9296 34.6631C76.7225 34.5574 76.4666 34.5046 76.1619 34.5046C75.8775 34.5046 75.6277 34.5534 75.4124 34.6509C75.2012 34.7484 75.0346 34.8763 74.9128 35.0347C74.795 35.1932 74.7361 35.3638 74.7361 35.5466H73.6088C73.6088 35.311 73.6697 35.0774 73.7916 34.8459C73.9135 34.6143 74.0882 34.4051 74.3156 34.2182C74.5472 34.0273 74.8234 33.877 75.1443 33.7673C75.4693 33.6536 75.8308 33.5967 76.2289 33.5967C76.7083 33.5967 77.1307 33.678 77.4963 33.8405C77.866 34.0029 78.1544 34.2487 78.3616 34.5777C78.5728 34.9027 78.6784 35.311 78.6784 35.8025V38.8735C78.6784 39.0929 78.6967 39.3264 78.7333 39.5742C78.7739 39.822 78.8328 40.0353 78.91 40.214V40.3115H77.734C77.6771 40.1815 77.6324 40.0089 77.5999 39.7936C77.5674 39.5742 77.5512 39.3711 77.5512 39.1843ZM77.7461 36.3143L77.7583 37.1065H76.6189C76.298 37.1065 76.0116 37.1329 75.7597 37.1857C75.5079 37.2344 75.2967 37.3096 75.126 37.4111C74.9554 37.5127 74.8254 37.6406 74.7361 37.795C74.6467 37.9453 74.602 38.122 74.602 38.3251C74.602 38.5323 74.6487 38.7212 74.7422 38.8918C74.8356 39.0624 74.9757 39.1985 75.1626 39.3C75.3535 39.3975 75.5871 39.4463 75.8633 39.4463C76.2086 39.4463 76.5133 39.3732 76.7773 39.2269C77.0414 39.0807 77.2506 38.9019 77.4049 38.6907C77.5634 38.4795 77.6487 38.2743 77.6608 38.0753L78.1422 38.6176C78.1138 38.7882 78.0366 38.9771 77.9107 39.1843C77.7847 39.3914 77.6162 39.5905 77.4049 39.7814C77.1978 39.9683 76.95 40.1247 76.6615 40.2506C76.3772 40.3725 76.0563 40.4334 75.6988 40.4334C75.252 40.4334 74.86 40.3461 74.5228 40.1714C74.1897 39.9967 73.9297 39.7631 73.7429 39.4707C73.5601 39.1741 73.4687 38.843 73.4687 38.4774C73.4687 38.124 73.5377 37.8133 73.6758 37.5452C73.814 37.273 74.013 37.0476 74.273 36.8688C74.533 36.686 74.8457 36.5479 75.2113 36.4545C75.5769 36.361 75.9852 36.3143 76.4361 36.3143H77.7461ZM85.3559 39.0319V30.9522H86.4893V40.3115H85.4534L85.3559 39.0319ZM80.92 37.0882V36.9602C80.92 36.4565 80.9809 35.9995 81.1028 35.5892C81.2287 35.1749 81.4054 34.8194 81.6329 34.5229C81.8645 34.2264 82.1387 33.9989 82.4555 33.8405C82.7764 33.678 83.1339 33.5967 83.5279 33.5967C83.9423 33.5967 84.3038 33.6699 84.6125 33.8161C84.9253 33.9583 85.1894 34.1675 85.4047 34.4437C85.624 34.7159 85.7967 35.0449 85.9226 35.4308C86.0485 35.8167 86.1359 36.2534 86.1846 36.7409V37.3014C86.1399 37.7848 86.0526 38.2195 85.9226 38.6054C85.7967 38.9913 85.624 39.3204 85.4047 39.5925C85.1894 39.8647 84.9253 40.0739 84.6125 40.2201C84.2998 40.3623 83.9342 40.4334 83.5158 40.4334C83.1298 40.4334 82.7764 40.3501 82.4555 40.1836C82.1387 40.017 81.8645 39.7834 81.6329 39.4828C81.4054 39.1822 81.2287 38.8288 81.1028 38.4226C80.9809 38.0123 80.92 37.5675 80.92 37.0882ZM82.0534 36.9602V37.0882C82.0534 37.4172 82.0859 37.7259 82.1509 38.0144C82.2199 38.3028 82.3255 38.5567 82.4677 38.776C82.6099 38.9954 82.7907 39.168 83.01 39.2939C83.2294 39.4158 83.4914 39.4767 83.796 39.4767C84.1698 39.4767 84.4765 39.3975 84.7161 39.2391C84.9599 39.0807 85.1548 38.8715 85.3011 38.6115C85.4473 38.3515 85.5611 38.0692 85.6423 37.7645V36.2961C85.5936 36.0726 85.5225 35.8573 85.429 35.6502C85.3397 35.4389 85.2219 35.2521 85.0756 35.0896C84.9335 34.923 84.7567 34.791 84.5455 34.6935C84.3383 34.596 84.0926 34.5473 83.8082 34.5473C83.4995 34.5473 83.2334 34.6123 83.01 34.7423C82.7907 34.8682 82.6099 35.0429 82.4677 35.2663C82.3255 35.4856 82.2199 35.7416 82.1509 36.034C82.0859 36.3225 82.0534 36.6312 82.0534 36.9602ZM93.0076 31.4397H95.9446C96.6108 31.4397 97.1734 31.5413 97.6324 31.7444C98.0955 31.9475 98.4469 32.2481 98.6866 32.6462C98.9303 33.0402 99.0521 33.5256 99.0521 34.1025C99.0521 34.5087 98.9689 34.8804 98.8023 35.2175C98.6398 35.5506 98.4042 35.835 98.0955 36.0706C97.7908 36.3021 97.4252 36.4748 96.9987 36.5885L96.6697 36.7165H93.9094L93.8972 35.7598H95.9811C96.4036 35.7598 96.755 35.6867 97.0353 35.5405C97.3156 35.3902 97.5268 35.1891 97.669 34.9373C97.8112 34.6854 97.8822 34.4071 97.8822 34.1025C97.8822 33.7612 97.8152 33.4627 97.6812 33.2068C97.5471 32.9508 97.3359 32.7538 97.0475 32.6157C96.7631 32.4735 96.3955 32.4024 95.9446 32.4024H94.1836V40.3115H93.0076V31.4397ZM98.193 40.3115L96.036 36.29L97.2607 36.2839L99.4482 40.2384V40.3115H98.193ZM104.011 40.4334C103.552 40.4334 103.136 40.3562 102.762 40.2018C102.393 40.0434 102.074 39.822 101.806 39.5377C101.542 39.2533 101.338 38.9162 101.196 38.5262C101.054 38.1362 100.983 37.7097 100.983 37.2466V36.9907C100.983 36.4545 101.062 35.9772 101.221 35.5588C101.379 35.1363 101.594 34.7788 101.867 34.4863C102.139 34.1939 102.447 33.9725 102.793 33.8222C103.138 33.6719 103.495 33.5967 103.865 33.5967C104.336 33.5967 104.743 33.678 105.084 33.8405C105.429 34.0029 105.711 34.2304 105.931 34.5229C106.15 34.8113 106.313 35.1525 106.418 35.5466C106.524 35.9365 106.577 36.3631 106.577 36.8262V37.3319H101.653V36.4118H105.449V36.3265C105.433 36.034 105.372 35.7497 105.267 35.4735C105.165 35.1972 105.003 34.9697 104.779 34.791C104.556 34.6123 104.251 34.5229 103.865 34.5229C103.609 34.5229 103.374 34.5777 103.158 34.6874C102.943 34.793 102.758 34.9515 102.604 35.1627C102.449 35.3739 102.33 35.6319 102.244 35.9365C102.159 36.2412 102.116 36.5926 102.116 36.9907V37.2466C102.116 37.5594 102.159 37.8539 102.244 38.1301C102.334 38.4023 102.462 38.642 102.628 38.8491C102.799 39.0563 103.004 39.2188 103.244 39.3366C103.487 39.4544 103.764 39.5133 104.072 39.5133C104.47 39.5133 104.808 39.4321 105.084 39.2696C105.36 39.1071 105.602 38.8898 105.809 38.6176L106.491 39.1599C106.349 39.3752 106.168 39.5803 105.949 39.7753C105.73 39.9703 105.46 40.1287 105.139 40.2506C104.822 40.3725 104.446 40.4334 104.011 40.4334ZM110.561 39.2939L112.364 33.7186H113.516L111.146 40.3115H110.39L110.561 39.2939ZM109.056 33.7186L110.914 39.3244L111.042 40.3115H110.287L107.898 33.7186H109.056ZM116.574 33.7186V40.3115H115.441V33.7186H116.574ZM115.356 31.9698C115.356 31.787 115.41 31.6327 115.52 31.5067C115.634 31.3808 115.8 31.3178 116.02 31.3178C116.235 31.3178 116.4 31.3808 116.513 31.5067C116.631 31.6327 116.69 31.787 116.69 31.9698C116.69 32.1445 116.631 32.2948 116.513 32.4207C116.4 32.5426 116.235 32.6035 116.02 32.6035C115.8 32.6035 115.634 32.5426 115.52 32.4207C115.41 32.2948 115.356 32.1445 115.356 31.9698ZM121.869 40.4334C121.41 40.4334 120.993 40.3562 120.619 40.2018C120.25 40.0434 119.931 39.822 119.663 39.5377C119.399 39.2533 119.196 38.9162 119.053 38.5262C118.911 38.1362 118.84 37.7097 118.84 37.2466V36.9907C118.84 36.4545 118.919 35.9772 119.078 35.5588C119.236 35.1363 119.452 34.7788 119.724 34.4863C119.996 34.1939 120.305 33.9725 120.65 33.8222C120.995 33.6719 121.353 33.5967 121.722 33.5967C122.194 33.5967 122.6 33.678 122.941 33.8405C123.286 34.0029 123.569 34.2304 123.788 34.5229C124.007 34.8113 124.17 35.1525 124.275 35.5466C124.381 35.9365 124.434 36.3631 124.434 36.8262V37.3319H119.51V36.4118H123.307V36.3265C123.29 36.034 123.229 35.7497 123.124 35.4735C123.022 35.1972 122.86 34.9697 122.636 34.791C122.413 34.6123 122.108 34.5229 121.722 34.5229C121.466 34.5229 121.231 34.5777 121.015 34.6874C120.8 34.793 120.615 34.9515 120.461 35.1627C120.307 35.3739 120.187 35.6319 120.102 35.9365C120.016 36.2412 119.974 36.5926 119.974 36.9907V37.2466C119.974 37.5594 120.016 37.8539 120.102 38.1301C120.191 38.4023 120.319 38.642 120.485 38.8491C120.656 39.0563 120.861 39.2188 121.101 39.3366C121.345 39.4544 121.621 39.5133 121.929 39.5133C122.328 39.5133 122.665 39.4321 122.941 39.2696C123.217 39.1071 123.459 38.8898 123.666 38.6176L124.349 39.1599C124.206 39.3752 124.026 39.5803 123.806 39.7753C123.587 39.9703 123.317 40.1287 122.996 40.2506C122.679 40.3725 122.303 40.4334 121.869 40.4334ZM128.168 39.1416L129.862 33.7186H130.606L130.459 34.7971L128.735 40.3115H128.01L128.168 39.1416ZM127.029 33.7186L128.473 39.2025L128.577 40.3115H127.815L125.902 33.7186H127.029ZM132.226 39.1599L133.603 33.7186H134.725L132.811 40.3115H132.056L132.226 39.1599ZM130.77 33.7186L132.427 39.0502L132.616 40.3115H131.897L130.124 34.7849L129.978 33.7186H130.77ZM140.47 38.5628C140.47 38.4003 140.433 38.25 140.36 38.1119C140.291 37.9697 140.147 37.8417 139.928 37.728C139.712 37.6102 139.387 37.5086 138.953 37.4233C138.587 37.3461 138.256 37.2547 137.959 37.1491C137.667 37.0435 137.417 36.9155 137.21 36.7652C137.007 36.6149 136.85 36.4382 136.741 36.2351C136.631 36.032 136.576 35.7944 136.576 35.5222C136.576 35.2622 136.633 35.0165 136.747 34.7849C136.865 34.5534 137.029 34.3482 137.24 34.1695C137.456 33.9908 137.714 33.8506 138.014 33.7491C138.315 33.6475 138.65 33.5967 139.02 33.5967C139.548 33.5967 139.999 33.6902 140.372 33.877C140.746 34.0639 141.032 34.3137 141.232 34.6265C141.431 34.9352 141.53 35.2785 141.53 35.6563H140.403C140.403 35.4735 140.348 35.2968 140.238 35.1261C140.133 34.9515 139.976 34.8073 139.769 34.6935C139.566 34.5798 139.316 34.5229 139.02 34.5229C138.707 34.5229 138.453 34.5717 138.258 34.6691C138.067 34.7626 137.927 34.8824 137.838 35.0287C137.752 35.1749 137.71 35.3293 137.71 35.4917C137.71 35.6136 137.73 35.7233 137.771 35.8208C137.815 35.9142 137.892 36.0015 138.002 36.0828C138.112 36.16 138.266 36.2331 138.465 36.3021C138.664 36.3712 138.918 36.4403 139.227 36.5093C139.767 36.6312 140.212 36.7774 140.561 36.948C140.911 37.1186 141.171 37.3278 141.341 37.5756C141.512 37.8234 141.597 38.124 141.597 38.4774C141.597 38.7659 141.536 39.0299 141.414 39.2696C141.297 39.5092 141.124 39.7164 140.896 39.8911C140.673 40.0617 140.405 40.1958 140.092 40.2932C139.783 40.3867 139.436 40.4334 139.05 40.4334C138.469 40.4334 137.978 40.3298 137.576 40.1226C137.173 39.9155 136.869 39.6474 136.662 39.3183C136.454 38.9893 136.351 38.642 136.351 38.2764H137.484C137.5 38.5851 137.59 38.8309 137.752 39.0137C137.915 39.1924 138.114 39.3204 138.349 39.3975C138.585 39.4707 138.819 39.5072 139.05 39.5072C139.359 39.5072 139.617 39.4666 139.824 39.3853C140.035 39.3041 140.196 39.1924 140.305 39.0502C140.415 38.908 140.47 38.7456 140.47 38.5628Z" fill="#181016"/>
</svg>
