<svg width="151" height="29" viewBox="0 0 151 29" fill="none" xmlns="http://www.w3.org/2000/svg">
<path d="M142.949 24.3495C142.949 22.1546 144.731 20.3738 146.925 20.3738C149.12 20.3738 150.899 22.1546 150.899 24.3495C150.899 26.5444 149.12 28.324 146.925 28.324C144.731 28.324 142.949 26.5444 142.949 24.3495Z" fill="#181016"/>
<path d="M16.1577 13.8208C16.1577 11.3026 15.6712 9.43441 14.698 8.21732C13.7236 7.00138 12.2475 6.39397 10.2632 6.39397H8.15233V21.7928H9.76734C11.9714 21.7928 13.5866 21.1394 14.6151 19.828C15.6423 18.5189 16.1577 16.5161 16.1577 13.8208ZM23.6857 13.5585C23.6857 18.1462 22.4524 21.6812 19.9861 24.1625C17.5197 26.645 14.0525 27.8863 9.58332 27.8863H0.89917V0.395996H10.1895C14.4988 0.395996 17.8256 1.5245 20.1701 3.78037C22.5134 6.03739 23.6857 9.29523 23.6857 13.5585Z" fill="#181016"/>
<path d="M47.7406 27.886H54.6509V0.28064H47.7406V27.886Z" fill="#181016"/>
<path d="M64.3584 17.5891C64.3584 19.3491 64.5885 20.6916 65.0475 21.6142C65.5077 22.5379 66.2783 22.9992 67.362 22.9992C68.4341 22.9992 69.1922 22.5379 69.6339 21.6142C70.0757 20.6916 70.2954 19.3491 70.2954 17.5891C70.2954 15.8382 70.0722 14.5175 69.6247 13.626C69.1761 12.7322 68.4112 12.2847 67.3265 12.2847C66.2658 12.2847 65.5077 12.7299 65.0475 13.6157C64.5885 14.5026 64.3584 15.8267 64.3584 17.5891ZM77.3288 17.5891C77.3288 20.9424 76.4498 23.5583 74.6875 25.4334C72.9263 27.3097 70.4611 28.2483 67.2919 28.2483C64.2526 28.2483 61.8333 27.2889 60.0376 25.3701C58.2396 23.4513 57.3412 20.8584 57.3412 17.5891C57.3412 14.2461 58.2213 11.6485 59.9837 9.79644C61.7459 7.94435 64.2169 7.01831 67.3988 7.01831C69.3648 7.01831 71.1042 7.44742 72.6112 8.30444C74.1193 9.16147 75.2835 10.3889 76.1014 11.9879C76.9205 13.5846 77.3288 15.4528 77.3288 17.5891Z" fill="#181016"/>
<path d="M80.0733 27.886H86.9847V17.3211V7.38074H80.0733V27.886Z" fill="#181016"/>
<path d="M80.0729 4.90044H86.9844V0.279419H80.0729V4.90044Z" fill="#181016"/>
<path d="M100.986 22.656C101.919 22.656 103.031 22.419 104.327 21.9485V27.1079C103.395 27.5174 102.51 27.8107 101.667 27.9845C100.825 28.1605 99.8372 28.2479 98.7064 28.2479C96.3861 28.2479 94.7134 27.6647 93.6861 26.5005C92.6635 25.3363 92.1504 23.5487 92.1504 21.1363V12.6834H89.7302V7.38254H92.1504V2.14606L99.1149 0.934692V7.38254H103.524V12.6834H99.1149V20.6647C99.1149 21.9922 99.7395 22.656 100.986 22.656Z" fill="#181016"/>
<path d="M116.982 22.656C117.915 22.656 119.027 22.419 120.323 21.9485V27.1079C119.393 27.5174 118.505 27.8107 117.663 27.9845C116.82 28.1605 115.835 28.2479 114.702 28.2479C112.382 28.2479 110.709 27.6647 109.684 26.5005C108.66 25.3363 108.147 23.5487 108.147 21.1363V12.6834H105.725V7.38254H108.147V2.06669L115.11 0.934692V7.38254H119.521V12.6834H115.11V20.6647C115.11 21.9922 115.734 22.656 116.982 22.656Z" fill="#181016"/>
<path d="M129.043 15.091C129.138 13.9683 129.459 13.1458 130.006 12.6201C130.556 12.0955 131.235 11.8332 132.047 11.8332C132.933 11.8332 133.637 12.1277 134.159 12.7213C134.685 13.3114 134.959 14.1017 134.981 15.091H129.043ZM138.789 9.43587C137.147 7.82536 134.816 7.01892 131.801 7.01892C128.632 7.01892 126.193 7.94496 124.484 9.79705C122.775 11.6491 121.92 14.3065 121.92 17.7691C121.92 21.1224 122.844 23.7084 124.687 25.5237C126.531 27.339 129.12 28.2478 132.455 28.2478C134.057 28.2478 135.435 28.1385 136.59 27.9211C137.738 27.706 138.849 27.3171 139.927 26.7558L138.865 22.1347C138.082 22.4545 137.336 22.7007 136.632 22.8629C135.616 23.0988 134.5 23.2173 133.285 23.2173C131.953 23.2173 130.901 22.8917 130.131 22.2406C129.36 21.5883 128.949 20.6888 128.902 19.543H141.255V16.3944C141.255 13.3655 140.433 11.0452 138.789 9.43587Z" fill="#181016"/>
<path d="M32.8572 15.091C32.9515 13.9683 33.2725 13.1458 33.82 12.6201C34.3687 12.0955 35.0487 11.8332 35.8621 11.8332C36.7456 11.8332 37.4495 12.1277 37.973 12.7213C38.4986 13.3114 38.7713 14.1017 38.7955 15.091H32.8572ZM42.6043 9.43587C40.9605 7.82536 38.6309 7.01892 35.6147 7.01892C32.4442 7.01892 30.0065 7.94496 28.2982 9.79705C26.5899 11.6491 25.7341 14.3065 25.7341 17.7691C25.7341 21.1224 26.6568 23.7084 28.502 25.5237C30.3449 27.339 32.9342 28.2478 36.2692 28.2478C37.8705 28.2478 39.2486 28.1385 40.4036 27.9211C41.5516 27.706 42.6631 27.3171 43.7421 26.7558L42.6791 22.1347C41.8957 22.4545 41.1502 22.7007 40.4474 22.8629C39.4282 23.0988 38.3134 23.2173 37.0985 23.2173C35.7676 23.2173 34.7152 22.8917 33.9444 22.2406C33.1725 21.5883 32.763 20.6888 32.7159 19.543H45.0684V16.3944C45.0684 13.3655 44.247 11.0452 42.6043 9.43587Z" fill="#181016"/>
</svg>
