<svg xmlns="http://www.w3.org/2000/svg" width="46.106" height="54.999" viewBox="0 0 46.106 54.999"><g transform="translate(0.499 0.499)"><path d="M45.106,54H0V0H45.106V54ZM34.069,14.056v0l3.809,11.45h3.242L35.479,10.478H32.49L26.848,25.509h3.368l1.2-3.474h3.626L34.3,19.446H32.238l1.83-5.387ZM14.474,16.639v8.87h5.095a10.355,10.355,0,0,0,3.283-.484,6.243,6.243,0,0,0,4.012-3.831,9.248,9.248,0,0,0,.536-3.284,7.448,7.448,0,0,0-1.927-5.559,7.165,7.165,0,0,0-4.816-1.873H4.5V25.509H7.636v-6.2h4.231V16.615H7.636V13.171H20.351a4.557,4.557,0,0,1,1.629.316,3.263,3.263,0,0,1,1.252.948,3.9,3.9,0,0,1,.705,1.506,8.314,8.314,0,0,1,.221,1.989A7.4,7.4,0,0,1,23.9,19.94a4.215,4.215,0,0,1-.788,1.548,3.457,3.457,0,0,1-1.4,1,5.614,5.614,0,0,1-2.083.347H17.61v-6.2Z" transform="translate(0.001 0.001)" fill="#007bbb" stroke="rgba(0,0,0,0)" stroke-miterlimit="10" stroke-width="1"/></g></svg>