<svg width="99" height="41" viewBox="0 0 99 41" fill="none" xmlns="http://www.w3.org/2000/svg">
<path d="M5.48865 1.23926V18.3018H1.97302V1.23926H5.48865ZM12.2855 8.52832V11.2705H4.52771V8.52832H12.2855ZM13.1058 1.23926V3.99316H4.52771V1.23926H13.1058ZM18.7365 5.62207V18.3018H15.3497V5.62207H18.7365ZM15.1388 2.31738C15.1388 1.8252 15.3107 1.41895 15.6544 1.09863C15.9982 0.77832 16.4591 0.618164 17.0372 0.618164C17.6076 0.618164 18.0646 0.77832 18.4083 1.09863C18.7599 1.41895 18.9357 1.8252 18.9357 2.31738C18.9357 2.80957 18.7599 3.21582 18.4083 3.53613C18.0646 3.85645 17.6076 4.0166 17.0372 4.0166C16.4591 4.0166 15.9982 3.85645 15.6544 3.53613C15.3107 3.21582 15.1388 2.80957 15.1388 2.31738ZM25.0702 8.3291V18.3018H21.6952V5.62207H24.8593L25.0702 8.3291ZM24.578 11.5166H23.664C23.664 10.5791 23.7851 9.73535 24.0272 8.98535C24.2694 8.22754 24.6093 7.58301 25.0468 7.05176C25.4843 6.5127 26.0038 6.10254 26.6054 5.82129C27.2147 5.53223 27.8944 5.3877 28.6444 5.3877C29.2382 5.3877 29.7811 5.47363 30.2733 5.64551C30.7655 5.81738 31.1874 6.09082 31.539 6.46582C31.8983 6.84082 32.1718 7.33691 32.3593 7.9541C32.5546 8.57129 32.6522 9.3252 32.6522 10.2158V18.3018H29.2538V10.2041C29.2538 9.6416 29.1757 9.2041 29.0194 8.8916C28.8632 8.5791 28.6327 8.36035 28.328 8.23535C28.0311 8.10254 27.664 8.03613 27.2265 8.03613C26.7733 8.03613 26.3788 8.12598 26.0429 8.30566C25.7147 8.48535 25.4413 8.73535 25.2226 9.05566C25.0116 9.36816 24.8515 9.73535 24.7421 10.1572C24.6327 10.5791 24.578 11.0322 24.578 11.5166ZM42.3024 15.4424V9.79395C42.3024 9.3877 42.236 9.04004 42.1032 8.75098C41.9704 8.4541 41.7633 8.22363 41.4821 8.05957C41.2086 7.89551 40.8532 7.81348 40.4157 7.81348C40.0407 7.81348 39.7165 7.87988 39.443 8.0127C39.1696 8.1377 38.9586 8.32129 38.8102 8.56348C38.6618 8.79785 38.5876 9.0752 38.5876 9.39551H35.2126C35.2126 8.85645 35.3376 8.34473 35.5876 7.86035C35.8376 7.37598 36.2008 6.9502 36.6774 6.58301C37.154 6.20801 37.7204 5.91504 38.3766 5.7041C39.0407 5.49316 39.7829 5.3877 40.6032 5.3877C41.5876 5.3877 42.4626 5.55176 43.2282 5.87988C43.9938 6.20801 44.5954 6.7002 45.0329 7.35645C45.4782 8.0127 45.7008 8.83301 45.7008 9.81738V15.2432C45.7008 15.9385 45.7438 16.5088 45.8297 16.9541C45.9157 17.3916 46.0407 17.7744 46.2047 18.1025V18.3018H42.7946C42.6305 17.958 42.5055 17.5283 42.4196 17.0127C42.3415 16.4893 42.3024 15.9658 42.3024 15.4424ZM42.7477 10.5791L42.7711 12.4893H40.8844C40.4391 12.4893 40.0524 12.54 39.7243 12.6416C39.3961 12.7432 39.1266 12.8877 38.9157 13.0752C38.7047 13.2549 38.5485 13.4658 38.4469 13.708C38.3532 13.9502 38.3063 14.2158 38.3063 14.5049C38.3063 14.7939 38.3727 15.0557 38.5055 15.29C38.6383 15.5166 38.8297 15.6963 39.0797 15.8291C39.3297 15.9541 39.6227 16.0166 39.9586 16.0166C40.4665 16.0166 40.9079 15.915 41.2829 15.7119C41.6579 15.5088 41.9469 15.2588 42.1501 14.9619C42.361 14.665 42.4704 14.3838 42.4782 14.1182L43.3688 15.5479C43.2438 15.8682 43.0719 16.2002 42.8532 16.5439C42.6422 16.8877 42.3727 17.2119 42.0446 17.5166C41.7165 17.8135 41.3219 18.0596 40.861 18.2549C40.4001 18.4424 39.8532 18.5361 39.2204 18.5361C38.4157 18.5361 37.6852 18.376 37.029 18.0557C36.3805 17.7275 35.8649 17.2783 35.4821 16.708C35.1071 16.1299 34.9196 15.4736 34.9196 14.7393C34.9196 14.0752 35.0446 13.4854 35.2946 12.9697C35.5446 12.4541 35.9118 12.0205 36.3961 11.6689C36.8883 11.3096 37.5016 11.04 38.236 10.8604C38.9704 10.6729 39.8219 10.5791 40.7907 10.5791H42.7477ZM51.8471 8.3291V18.3018H48.4721V5.62207H51.6361L51.8471 8.3291ZM51.3549 11.5166H50.4408C50.4408 10.5791 50.5619 9.73535 50.8041 8.98535C51.0463 8.22754 51.3861 7.58301 51.8236 7.05176C52.2611 6.5127 52.7807 6.10254 53.3822 5.82129C53.9916 5.53223 54.6713 5.3877 55.4213 5.3877C56.0151 5.3877 56.558 5.47363 57.0502 5.64551C57.5424 5.81738 57.9643 6.09082 58.3158 6.46582C58.6752 6.84082 58.9486 7.33691 59.1361 7.9541C59.3315 8.57129 59.4291 9.3252 59.4291 10.2158V18.3018H56.0307V10.2041C56.0307 9.6416 55.9526 9.2041 55.7963 8.8916C55.6401 8.5791 55.4096 8.36035 55.1049 8.23535C54.808 8.10254 54.4408 8.03613 54.0033 8.03613C53.5502 8.03613 53.1557 8.12598 52.8197 8.30566C52.4916 8.48535 52.2182 8.73535 51.9994 9.05566C51.7885 9.36816 51.6283 9.73535 51.519 10.1572C51.4096 10.5791 51.3549 11.0322 51.3549 11.5166ZM67.4738 15.8994C67.8879 15.8994 68.2551 15.8213 68.5754 15.665C68.8957 15.501 69.1457 15.2744 69.3254 14.9854C69.5129 14.6885 69.6105 14.3408 69.6183 13.9424H72.7941C72.7863 14.833 72.548 15.626 72.0793 16.3213C71.6105 17.0088 70.9816 17.5518 70.1926 17.9502C69.4035 18.3408 68.5207 18.5361 67.5441 18.5361C66.5597 18.5361 65.7004 18.3721 64.966 18.0439C64.2394 17.7158 63.634 17.2627 63.1496 16.6846C62.6652 16.0986 62.3019 15.4189 62.0597 14.6455C61.8176 13.8643 61.6965 13.0283 61.6965 12.1377V11.7979C61.6965 10.8994 61.8176 10.0635 62.0597 9.29004C62.3019 8.50879 62.6652 7.8291 63.1496 7.25098C63.634 6.66504 64.2394 6.20801 64.966 5.87988C65.6926 5.55176 66.5441 5.3877 67.5207 5.3877C68.5597 5.3877 69.4699 5.58691 70.2511 5.98535C71.0402 6.38379 71.6574 6.9541 72.1027 7.69629C72.5558 8.43066 72.7863 9.30176 72.7941 10.3096H69.6183C69.6105 9.8877 69.5207 9.50488 69.3488 9.16113C69.1847 8.81738 68.9426 8.54395 68.6222 8.34082C68.3097 8.12988 67.923 8.02441 67.4621 8.02441C66.9699 8.02441 66.5676 8.12988 66.2551 8.34082C65.9426 8.54395 65.7004 8.8252 65.5285 9.18457C65.3566 9.53613 65.2355 9.93848 65.1652 10.3916C65.1027 10.8369 65.0715 11.3057 65.0715 11.7979V12.1377C65.0715 12.6299 65.1027 13.1025 65.1652 13.5557C65.2277 14.0088 65.3449 14.4111 65.5168 14.7627C65.6965 15.1143 65.9426 15.3916 66.2551 15.5947C66.5676 15.7979 66.9738 15.8994 67.4738 15.8994ZM78.5536 5.62207V18.3018H75.1669V5.62207H78.5536ZM74.956 2.31738C74.956 1.8252 75.1279 1.41895 75.4716 1.09863C75.8154 0.77832 76.2763 0.618164 76.8544 0.618164C77.4247 0.618164 77.8818 0.77832 78.2255 1.09863C78.5771 1.41895 78.7529 1.8252 78.7529 2.31738C78.7529 2.80957 78.5771 3.21582 78.2255 3.53613C77.8818 3.85645 77.4247 4.0166 76.8544 4.0166C76.2763 4.0166 75.8154 3.85645 75.4716 3.53613C75.1279 3.21582 74.956 2.80957 74.956 2.31738ZM88.4265 15.4424V9.79395C88.4265 9.3877 88.3601 9.04004 88.2272 8.75098C88.0944 8.4541 87.8874 8.22363 87.6061 8.05957C87.3327 7.89551 86.9772 7.81348 86.5397 7.81348C86.1647 7.81348 85.8405 7.87988 85.5671 8.0127C85.2936 8.1377 85.0827 8.32129 84.9343 8.56348C84.7858 8.79785 84.7116 9.0752 84.7116 9.39551H81.3366C81.3366 8.85645 81.4616 8.34473 81.7116 7.86035C81.9616 7.37598 82.3249 6.9502 82.8015 6.58301C83.278 6.20801 83.8444 5.91504 84.5007 5.7041C85.1647 5.49316 85.9069 5.3877 86.7272 5.3877C87.7116 5.3877 88.5866 5.55176 89.3522 5.87988C90.1179 6.20801 90.7194 6.7002 91.1569 7.35645C91.6022 8.0127 91.8249 8.83301 91.8249 9.81738V15.2432C91.8249 15.9385 91.8679 16.5088 91.9538 16.9541C92.0397 17.3916 92.1647 17.7744 92.3288 18.1025V18.3018H88.9186C88.7546 17.958 88.6296 17.5283 88.5436 17.0127C88.4655 16.4893 88.4265 15.9658 88.4265 15.4424ZM88.8718 10.5791L88.8952 12.4893H87.0085C86.5632 12.4893 86.1765 12.54 85.8483 12.6416C85.5202 12.7432 85.2507 12.8877 85.0397 13.0752C84.8288 13.2549 84.6726 13.4658 84.571 13.708C84.4772 13.9502 84.4304 14.2158 84.4304 14.5049C84.4304 14.7939 84.4968 15.0557 84.6296 15.29C84.7624 15.5166 84.9538 15.6963 85.2038 15.8291C85.4538 15.9541 85.7468 16.0166 86.0827 16.0166C86.5905 16.0166 87.0319 15.915 87.4069 15.7119C87.7819 15.5088 88.071 15.2588 88.2741 14.9619C88.4851 14.665 88.5944 14.3838 88.6022 14.1182L89.4929 15.5479C89.3679 15.8682 89.196 16.2002 88.9772 16.5439C88.7663 16.8877 88.4968 17.2119 88.1686 17.5166C87.8405 17.8135 87.446 18.0596 86.9851 18.2549C86.5241 18.4424 85.9772 18.5361 85.3444 18.5361C84.5397 18.5361 83.8093 18.376 83.153 18.0557C82.5046 17.7275 81.989 17.2783 81.6061 16.708C81.2311 16.1299 81.0436 15.4736 81.0436 14.7393C81.0436 14.0752 81.1686 13.4854 81.4186 12.9697C81.6686 12.4541 82.0358 12.0205 82.5202 11.6689C83.0124 11.3096 83.6257 11.04 84.3601 10.8604C85.0944 10.6729 85.946 10.5791 86.9147 10.5791H88.8718ZM98.229 0.301758V18.3018H94.8422V0.301758H98.229ZM9.60193 23.2393V40.3018H6.09802V23.2393H9.60193ZM14.8519 23.2393V25.9932H0.930054V23.2393H14.8519ZM20.4474 27.6221V40.3018H17.0607V27.6221H20.4474ZM16.8497 24.3174C16.8497 23.8252 17.0216 23.4189 17.3654 23.0986C17.7091 22.7783 18.1701 22.6182 18.7482 22.6182C19.3185 22.6182 19.7755 22.7783 20.1193 23.0986C20.4708 23.4189 20.6466 23.8252 20.6466 24.3174C20.6466 24.8096 20.4708 25.2158 20.1193 25.5361C19.7755 25.8564 19.3185 26.0166 18.7482 26.0166C18.1701 26.0166 17.7091 25.8564 17.3654 25.5361C17.0216 25.2158 16.8497 24.8096 16.8497 24.3174ZM26.8515 30.2471V40.3018H23.4647V27.6221H26.6405L26.8515 30.2471ZM26.3827 33.5166H25.4452C25.4452 32.6338 25.5507 31.8213 25.7616 31.0791C25.9804 30.3291 26.2968 29.6807 26.7108 29.1338C27.1327 28.5791 27.6522 28.1494 28.2694 27.8447C28.8866 27.54 29.6015 27.3877 30.414 27.3877C30.9765 27.3877 31.4921 27.4736 31.9608 27.6455C32.4296 27.8096 32.8319 28.0713 33.1679 28.4307C33.5116 28.7822 33.7772 29.2432 33.9647 29.8135C34.1522 30.376 34.246 31.0518 34.246 31.8408V40.3018H30.871V32.2158C30.871 31.6377 30.7929 31.1924 30.6366 30.8799C30.4804 30.5674 30.2577 30.3486 29.9686 30.2236C29.6874 30.0986 29.3476 30.0361 28.9491 30.0361C28.5116 30.0361 28.1288 30.126 27.8007 30.3057C27.4804 30.4854 27.2147 30.7354 27.0038 31.0557C26.7929 31.3682 26.6366 31.7354 26.5351 32.1572C26.4335 32.5791 26.3827 33.0322 26.3827 33.5166ZM33.9296 33.1299L32.7226 33.2822C32.7226 32.4541 32.8241 31.6846 33.0272 30.9736C33.2382 30.2627 33.5468 29.6377 33.953 29.0986C34.3671 28.5596 34.8788 28.1416 35.4882 27.8447C36.0976 27.54 36.8007 27.3877 37.5976 27.3877C38.2069 27.3877 38.7616 27.4775 39.2616 27.6572C39.7616 27.8291 40.1874 28.1064 40.539 28.4893C40.8983 28.8643 41.1718 29.3564 41.3593 29.9658C41.5546 30.5752 41.6522 31.3213 41.6522 32.2041V40.3018H38.2655V32.2041C38.2655 31.6182 38.1874 31.1729 38.0311 30.8682C37.8827 30.5557 37.664 30.3408 37.3749 30.2236C37.0936 30.0986 36.7577 30.0361 36.3671 30.0361C35.9608 30.0361 35.6054 30.1182 35.3007 30.2822C34.996 30.4385 34.7421 30.6572 34.539 30.9385C34.3358 31.2197 34.1835 31.5479 34.0819 31.9229C33.9804 32.29 33.9296 32.6924 33.9296 33.1299ZM50.3415 40.5361C49.3571 40.5361 48.4743 40.3799 47.693 40.0674C46.9118 39.7471 46.2477 39.3057 45.7008 38.7432C45.1618 38.1807 44.7477 37.5283 44.4586 36.7861C44.1696 36.0361 44.0251 35.2393 44.0251 34.3955V33.9268C44.0251 32.9658 44.1618 32.0869 44.4352 31.29C44.7086 30.4932 45.0993 29.8018 45.6071 29.2158C46.1227 28.6299 46.7477 28.1807 47.4821 27.8682C48.2165 27.5479 49.0446 27.3877 49.9665 27.3877C50.8649 27.3877 51.6618 27.5361 52.3571 27.833C53.0524 28.1299 53.6344 28.5518 54.1032 29.0986C54.5797 29.6455 54.9391 30.3018 55.1813 31.0674C55.4235 31.8252 55.5446 32.6689 55.5446 33.5986V35.0049H45.4665V32.7549H52.2282V32.4971C52.2282 32.0283 52.1422 31.6104 51.9704 31.2432C51.8063 30.8682 51.5563 30.5713 51.2204 30.3525C50.8844 30.1338 50.4547 30.0244 49.9313 30.0244C49.486 30.0244 49.1032 30.1221 48.7829 30.3174C48.4626 30.5127 48.2008 30.7861 47.9977 31.1377C47.8024 31.4893 47.654 31.9033 47.5524 32.3799C47.4586 32.8486 47.4118 33.3643 47.4118 33.9268V34.3955C47.4118 34.9033 47.4821 35.3721 47.6227 35.8018C47.7711 36.2314 47.9782 36.6025 48.2438 36.915C48.5172 37.2275 48.8454 37.4697 49.2282 37.6416C49.6188 37.8135 50.0602 37.8994 50.5524 37.8994C51.1618 37.8994 51.7282 37.7822 52.2516 37.5479C52.7829 37.3057 53.2399 36.9424 53.6227 36.458L55.2633 38.2393C54.9977 38.6221 54.6344 38.9893 54.1735 39.3408C53.7204 39.6924 53.1735 39.9814 52.5329 40.208C51.8922 40.4268 51.1618 40.5361 50.3415 40.5361ZM64.5619 36.7979C64.5619 36.5557 64.4916 36.3369 64.351 36.1416C64.2104 35.9463 63.9486 35.7666 63.5658 35.6025C63.1908 35.4307 62.6479 35.2744 61.9369 35.1338C61.2963 34.9932 60.6986 34.8174 60.144 34.6064C59.5971 34.3877 59.1205 34.126 58.7143 33.8213C58.3158 33.5166 58.0033 33.1572 57.7768 32.7432C57.5502 32.3213 57.4369 31.8408 57.4369 31.3018C57.4369 30.7705 57.5502 30.2705 57.7768 29.8018C58.0111 29.333 58.3432 28.9189 58.7729 28.5596C59.2104 28.1924 59.7416 27.9072 60.3666 27.7041C60.9994 27.4932 61.7104 27.3877 62.4994 27.3877C63.601 27.3877 64.5463 27.5635 65.3354 27.915C66.1322 28.2666 66.7416 28.751 67.1635 29.3682C67.5932 29.9775 67.808 30.6729 67.808 31.4541H64.433C64.433 31.126 64.3627 30.833 64.2221 30.5752C64.0893 30.3096 63.8783 30.1025 63.5893 29.9541C63.308 29.7979 62.9408 29.7197 62.4877 29.7197C62.1127 29.7197 61.7885 29.7861 61.5151 29.9189C61.2416 30.0439 61.0307 30.2158 60.8822 30.4346C60.7416 30.6455 60.6713 30.8799 60.6713 31.1377C60.6713 31.333 60.7104 31.5088 60.7885 31.665C60.8744 31.8135 61.0111 31.9502 61.1986 32.0752C61.3861 32.2002 61.6283 32.3174 61.9252 32.4268C62.2299 32.5283 62.6049 32.6221 63.0502 32.708C63.9643 32.8955 64.7807 33.1416 65.4994 33.4463C66.2182 33.7432 66.7885 34.1494 67.2104 34.665C67.6322 35.1729 67.8432 35.8408 67.8432 36.6689C67.8432 37.2314 67.7182 37.7471 67.4682 38.2158C67.2182 38.6846 66.8588 39.0947 66.3901 39.4463C65.9213 39.79 65.3588 40.0596 64.7026 40.2549C64.0541 40.4424 63.3236 40.5361 62.5111 40.5361C61.3315 40.5361 60.3315 40.3252 59.5111 39.9033C58.6986 39.4814 58.0815 38.9463 57.6596 38.2979C57.2455 37.6416 57.0385 36.9697 57.0385 36.2822H60.2377C60.2533 36.7432 60.3705 37.1143 60.5893 37.3955C60.8158 37.6768 61.101 37.8799 61.4447 38.0049C61.7963 38.1299 62.1752 38.1924 62.5815 38.1924C63.019 38.1924 63.3822 38.1338 63.6713 38.0166C63.9604 37.8916 64.1791 37.7275 64.3276 37.5244C64.4838 37.3135 64.5619 37.0713 64.5619 36.7979Z" fill="#181016"/>
</svg>
