<svg xmlns="http://www.w3.org/2000/svg" xmlns:xlink="http://www.w3.org/1999/xlink" width="60.044" height="60.044" viewBox="0 0 60.044 60.044"><defs><clipPath id="a"><rect width="60.044" height="60.044" fill="none"/></clipPath></defs><g clip-path="url(#a)"><path d="M139.633,84.668V82.486a4.756,4.756,0,0,0-9.511,0v2.182h-1.467v3.5a7.339,7.339,0,0,0,6.222,7.253,7.339,7.339,0,0,0,6.222-7.253v-3.5Zm-5.7,7.373-2.318-2.319.859-.858,1.46,1.46,3.349-3.349.859.859Zm4.284-7.373h-6.678V82.486a3.339,3.339,0,1,1,6.678,0Zm1.417,0V82.486a4.756,4.756,0,0,0-9.511,0v2.182h-1.467v3.5a7.339,7.339,0,0,0,6.222,7.253,7.339,7.339,0,0,0,6.222-7.253v-3.5Zm-5.7,7.373-2.318-2.319.859-.858,1.46,1.46,3.349-3.349.859.859Zm4.284-7.373h-6.678V82.486a3.339,3.339,0,1,1,6.678,0Zm1.417,0V82.486a4.756,4.756,0,0,0-9.511,0v2.182h-1.467v3.5a7.339,7.339,0,0,0,6.222,7.253,7.339,7.339,0,0,0,6.222-7.253v-3.5Zm-5.7,7.373-2.318-2.319.859-.858,1.46,1.46,3.349-3.349.859.859Zm4.284-7.373h-6.678V82.486a3.339,3.339,0,1,1,6.678,0Z" transform="translate(-104.948 -63.407)" fill="#495ea4"/><path d="M86.718,195.1a4.57,4.57,0,0,1,2.193.544v1.581a3.927,3.927,0,0,0-2.164-.711,2.293,2.293,0,1,0-.01,4.584,2.373,2.373,0,0,0,.879-.158v-1.077H86.372v-1.3h2.766v3.32a5.229,5.229,0,0,1-2.431.593,3.651,3.651,0,0,1-3.9-3.656,3.706,3.706,0,0,1,3.913-3.715m4.406.109h2.006c2.846,0,4.377,1.275,4.377,3.567,0,2.194-1.383,3.587-4.446,3.587H91.124Zm2.006,5.78c1.976,0,2.806-.8,2.806-2.213a2.078,2.078,0,0,0-.83-1.759,3.41,3.41,0,0,0-1.986-.435h-.425v4.406ZM99.2,195.2h2.124c1.749,0,3.28.484,3.28,2.282,0,1.65-1.206,2.312-3.34,2.312h-.494v2.559H99.2Zm2.144,3.32c1.295,0,1.69-.287,1.69-.958,0-.79-.543-.988-1.729-.988h-.534v1.946Zm4.91-3.32H108.5c1.63,0,3.083.445,3.083,2.154a1.99,1.99,0,0,1-1.452,1.976l2.015,3.023h-1.808l-1.808-2.826h-.7v2.826h-1.571Zm2.362,3.152c.889,0,1.393-.227,1.393-.889,0-.622-.415-.889-1.581-.889h-.6v1.778Z" transform="translate(-67.546 -159.145)" fill="#495ea4"/><path d="M140.053,5.511l-2.9-2.105h3.581L141.844,0l1.107,3.406h3.581l-2.9,2.105,1.107,3.406-2.9-2.105-2.9,2.105Z" transform="translate(-111.882 0.001)" fill="#fbce03"/><path d="M71.951,27.657l-3.562-.374,3.1-1.791-.745-3.5,2.662,2.4,3.1-1.791-1.457,3.272,2.662,2.4-3.562-.374L72.7,31.161Z" transform="translate(-55.787 -17.937)" fill="#fbce03"/><path d="M25.543,75.614,22.271,77.07l1.791-3.1-2.4-2.662,3.5.744,1.791-3.1.375,3.562,3.5.745-3.272,1.457.375,3.562Z" transform="translate(-17.673 -56.244)" fill="#fbce03"/><path d="M5.511,144.283l-2.105,2.9V143.6L0,142.492l3.406-1.107V137.8l2.105,2.9,3.406-1.107-2.105,2.9,2.105,2.9Z" transform="translate(0 -112.41)" fill="#fbce03"/><path d="M27.658,212.611l-.374,3.562-1.791-3.1-3.5.745,2.4-2.662-1.791-3.1,3.272,1.457,2.4-2.662-.374,3.562,3.272,1.457Z" transform="translate(-17.937 -168.731)" fill="#fbce03"/><path d="M75.614,259.7l1.457,3.272-3.1-1.791-2.662,2.4.744-3.5-3.1-1.791,3.562-.375.745-3.5,1.457,3.272,3.562-.375Z" transform="translate(-56.245 -207.525)" fill="#fbce03"/><path d="M6.479,3.406l2.9,2.105H5.8L4.688,8.918,3.582,5.512H0L2.9,3.406,1.791,0l2.9,2.105L7.586,0Z" transform="translate(34.77 60.044) rotate(180)" fill="#fbce03"/><path d="M212.611,257.584l3.562.374-3.1,1.791.745,3.5-2.662-2.4-3.1,1.791,1.457-3.272-2.662-2.4,3.562.374,1.457-3.272Z" transform="translate(-168.732 -207.261)" fill="#fbce03"/><path d="M259.7,208.948l3.272-1.457-1.791,3.1,2.4,2.662-3.5-.744-1.791,3.1-.375-3.562-3.5-.745,3.272-1.457-.375-3.562Z" transform="translate(-207.525 -168.274)" fill="#fbce03"/><path d="M280.855,140.053l2.105-2.9v3.581l3.406,1.107-3.406,1.107v3.582l-2.105-2.9-3.406,1.107,2.105-2.9-2.105-2.9Z" transform="translate(-226.323 -111.881)" fill="#fbce03"/><path d="M257.584,71.95l.374-3.562,1.791,3.1,3.5-.745-2.4,2.662,1.791,3.1-3.272-1.457-2.4,2.662.374-3.562L254.081,72.7Z" transform="translate(-207.261 -55.786)" fill="#fbce03"/><path d="M208.949,25.543l-1.457-3.272,3.1,1.791,2.662-2.4-.744,3.5,3.1,1.791-3.562.375-.745,3.5-1.457-3.272-3.562.375Z" transform="translate(-168.274 -17.673)" fill="#fbce03"/></g></svg>