<svg xmlns="http://www.w3.org/2000/svg" xmlns:xlink="http://www.w3.org/1999/xlink" width="54" height="54" viewBox="0 0 54 54"><defs><clipPath id="a"><rect width="54" height="54" fill="none"/></clipPath></defs><g clip-path="url(#a)"><path d="M31.75,31.75c.05-.051.1-.1.153-.147V24.454l-.2.178-2.938,7.5H25.851l-.5-1.264q-1.389,1.554-2.647,3.152v.169h-.129a55.544,55.544,0,0,0-6.058,9.5,57.382,57.382,0,0,0,10.93-7.218c1.337-1.61,2.769-3.19,4.3-4.719" fill="#258784"/><path d="M34.907,28.807c.519-.457,1.035-.921,1.561-1.357.09-.109.175-.219.264-.327v-6.43q-.917.643-1.825,1.336Z" fill="#258784"/><path d="M37.465,20.185H41.66c.739-1.22,1.42-2.444,2.027-3.665a52.819,52.819,0,0,0-6.222,3.665" fill="#258784"/><path d="M25.109,30.242,23.015,24.9c-.1.1-.2.193-.307.29V32.8c.2-.16.4-.316.594-.48.581-.7,1.189-1.391,1.807-2.078" fill="#258784"/><path d="M34.744,20.185a54.34,54.34,0,0,0,4.847-7.911A58.681,58.681,0,0,0,26.538,21.28c-.5.559-1.038,1.1-1.564,1.651L27.028,28.2c.194-.2.376-.405.574-.6.114-.114.232-.218.346-.331l2.76-7.086Z" fill="#258784"/><path d="M40.331,22.747c-.206.3-.4.608-.617.91V24.94c1.062-.773,2.129-1.511,3.2-2.19-.012,0-.022,0-.033,0Z" fill="#258784"/><path d="M45.977,10.972q.216-.664.4-1.312c-.461.127-.918.249-1.391.4a40.421,40.421,0,0,0-5.08,2.063,54.345,54.345,0,0,1-5,8.2v.948a54.8,54.8,0,0,1,9.2-5.623,39.944,39.944,0,0,0,1.871-4.674" fill="#258784"/><path d="M9.644,46.378q.656-.183,1.328-.4a40.014,40.014,0,0,0,4.674-1.871,55.4,55.4,0,0,1,6.165-9.916h-.55A55.338,55.338,0,0,1,12.125,39.9a40.271,40.271,0,0,0-2.063,5.08c-.153.471-.291.936-.418,1.395" fill="#258784"/><path d="M5.428,42.253c.455-.126.916-.263,1.383-.415A40.023,40.023,0,0,0,11.5,39.96a51.79,51.79,0,0,1,3.3-5.878,8.211,8.211,0,0,1-2.5.381,8.408,8.408,0,0,1-1.679-.173q-1.344.762-2.688,1.416a38.419,38.419,0,0,0-2.505,6.547" fill="#258784"/><path d="M15.323,30.726v-1.7H11.84c-.526.771-1.031,1.542-1.5,2.313A4.414,4.414,0,0,0,12.3,31.8a4.731,4.731,0,0,0,3.023-1.071" fill="#258784"/><path d="M22.708,24.235l.034-.036-.034-.087Z" fill="#258784"/><path d="M10.4,34.24a7.669,7.669,0,0,1-1.453-.492c-.317.583-.624,1.165-.908,1.743.786-.387,1.574-.808,2.361-1.251" fill="#258784"/><path d="M39.714,23.182c.1-.145.2-.29.295-.435h-.295Z" fill="#258784"/><path d="M11.586,26.463H13.1c.662-.883,1.353-1.761,2.081-2.634A3.976,3.976,0,0,0,12.3,22.6a4.36,4.36,0,0,0-4.388,4.6,4.527,4.527,0,0,0,2.023,3.918c.517-.847,1.07-1.694,1.651-2.542Z" fill="#258784"/><path d="M18.263,26.463v2.429c.3-.238.595-.473.89-.718.185-.223.386-.439.574-.66V20.185h4.178l.806,2.069c1.135-1.079,2.287-2.125,3.463-3.1a57.2,57.2,0,0,0,7.309-11.1,60.841,60.841,0,0,0-15.84,11.59c-.8.8-1.556,1.607-2.3,2.423a7.125,7.125,0,0,1,.748.954l-2.478,1.343c-.037-.056-.082-.11-.123-.165q-.939,1.126-1.8,2.265Z" fill="#258784"/><path d="M46.607,21.381a4,4,0,0,1,.538.612c.219-.409.433-.818.638-1.226-.392.195-.784.405-1.176.614" fill="#258784"/><path d="M53.749,23.362q-.075-.552-.171-1.1c-.2.479-.393.957-.613,1.438.263-.121.523-.228.784-.342" fill="#258784"/><path d="M40.6,31.623q1.008-1.215,1.934-2.451H39.713v3.216c.295-.252.586-.52.882-.765" fill="#258784"/><path d="M47.356,22.3a4.816,4.816,0,0,1,.231,4.3,51.2,51.2,0,0,1,4.8-2.631c.386-.818.738-1.633,1.062-2.445A26.81,26.81,0,0,0,52.7,18.7a41.033,41.033,0,0,0-4.4,1.812c-.29.595-.617,1.191-.939,1.787" fill="#258784"/><path d="M24.918,22.787l0,.01c.082-.086.168-.17.25-.257-.086.081-.169.166-.254.247" fill="#258784"/><path d="M22.956,24.744c-.082.085-.166.169-.248.255v.009c.086-.081.17-.165.255-.247Z" fill="#258784"/><path d="M39.714,29.172l2.025-2.562h1.145a1.907,1.907,0,0,0,2.057-1.931,1.834,1.834,0,0,0-1.084-1.718q-2.085,1.281-4.143,2.8Z" fill="#258784"/><path d="M18.263,29.275c.131-.165.257-.331.39-.495-.129.1-.261.2-.39.3Z" fill="#258784"/><path d="M20.932,34.19h-1.2V28.335c-.5.6-.99,1.208-1.464,1.818v1.665A7.91,7.91,0,0,1,15.67,33.75a52.144,52.144,0,0,0-3.4,5.841,55,55,0,0,0,8.658-5.4" fill="#258784"/><path d="M43.837,29.124c-.184.017-.359.048-.554.048H42.94c-.351.471-.691.945-1.06,1.412.65-.511,1.3-.985,1.957-1.46" fill="#258784"/><path d="M42.251,5.432A38.408,38.408,0,0,0,35.7,7.946a56.628,56.628,0,0,1-6.919,10.706A56.4,56.4,0,0,1,39.96,11.5a40.013,40.013,0,0,0,1.877-4.688c.151-.466.288-.925.414-1.379" fill="#258784"/><path d="M8.917,47.048c.016-.066.029-.131.046-.2-.071.018-.139.031-.209.048.054.05.108.1.163.149" fill="#258784"/><path d="M15.24,50.447c-.366.119-.72.213-1.077.311a26.788,26.788,0,0,0,3.9,1.721c.428-1.235.919-2.481,1.5-3.734a40.19,40.19,0,0,1-4.321,1.7" fill="#258784"/><path d="M23.361,53.749c.114-.261.221-.521.341-.784-.48.22-.958.414-1.436.613.363.064.727.121,1.095.171" fill="#258784"/><path d="M31.622,40.6C32.943,39,34.366,37.43,35.9,35.9c.59-.59,1.19-1.15,1.791-1.708h-.957V28.109c-.608.509-1.213,1.028-1.811,1.565l-.014.015v4.5h-3V32.809c-.735.721-1.476,1.434-2.23,2.112a58.783,58.783,0,0,0-8.908,12.862A57.3,57.3,0,0,0,31.622,40.6" fill="#258784"/><path d="M11.356,40.266a40.411,40.411,0,0,1-4.478,1.777c-.513.166-1.01.3-1.509.436-.045.171-.082.339-.124.509A27.288,27.288,0,0,0,8.5,46.661c.18-.043.359-.081.54-.128.15-.564.314-1.134.5-1.717a39.939,39.939,0,0,1,1.809-4.55" fill="#258784"/><path d="M20.517,48.294a40.507,40.507,0,0,0-1.812,4.4,26.489,26.489,0,0,0,2.823.749q1.218-.485,2.444-1.061a56.176,56.176,0,0,1,6.612-10.5,56.178,56.178,0,0,1-10.067,6.414" fill="#258784"/><path d="M19.792,48.253a56.081,56.081,0,0,1,6.8-10.725A56.334,56.334,0,0,1,16.321,44.1a40.123,40.123,0,0,0-2.057,5.065c-.147.452-.28.9-.4,1.338q.628-.176,1.272-.385a39.923,39.923,0,0,0,4.659-1.864" fill="#258784"/><path d="M40.756,40.756q-1.324,1.324-2.7,2.554a60.961,60.961,0,0,0-7.609,10.463,26.8,26.8,0,0,0,3.986-.819,62,62,0,0,0,5.481-4.064c1.321-1.593,2.743-3.166,4.275-4.7s3.1-2.955,4.7-4.276a61.855,61.855,0,0,0,4.064-5.481,26.856,26.856,0,0,0,.818-3.981,61.214,61.214,0,0,0-10.514,7.664q-1.206,1.34-2.5,2.637" fill="#258784"/><path d="M51.813,37.653q.337-.784.624-1.593-.868,1.242-1.815,2.468c.395-.306.794-.583,1.191-.875" fill="#258784"/><path d="M53.842,24.1c-.451.2-.9.4-1.357.626a56.016,56.016,0,0,1-6.234,9.834,58.558,58.558,0,0,1,7.63-5.069c.075-.82.119-1.648.119-2.487a27.307,27.307,0,0,0-.158-2.9" fill="#258784"/><path d="M37.654,51.813c.292-.4.569-.8.875-1.192q-1.225.951-2.468,1.816.808-.288,1.593-.624" fill="#258784"/><path d="M24.71,52.49c-.219.454-.423.9-.622,1.351A27.2,27.2,0,0,0,27,54c.838,0,1.666-.044,2.485-.118a58.391,58.391,0,0,1,5.07-7.629A55.974,55.974,0,0,1,24.71,52.49" fill="#258784"/><path d="M44.951,44.951q-1.323,1.323-2.693,2.552c-1.043,1.161-2.02,2.338-2.942,3.523a27.109,27.109,0,0,0,11.7-11.694c-1.2.936-2.391,1.927-3.566,2.984q-1.206,1.338-2.5,2.635" fill="#258784"/><path d="M11.059,46.245c-.508.164-1,.3-1.491.431-.071.261-.127.516-.189.772a26.949,26.949,0,0,0,3.93,2.821c.118-.427.234-.854.377-1.292a40.394,40.394,0,0,1,1.772-4.472,39.872,39.872,0,0,1-4.4,1.74" fill="#258784"/><path d="M44.1,16.321c-.628,1.287-1.355,2.577-2.13,3.864h1.314a5.035,5.035,0,0,1,2.76.746c.737-.4,1.475-.789,2.21-1.139a40.11,40.11,0,0,0,1.865-4.659q.206-.635.38-1.255c-.442.123-.88.239-1.333.386A40.346,40.346,0,0,0,44.1,16.321" fill="#258784"/><path d="M46.889,8.744c-.018.075-.027.145-.046.221l.2-.048-.158-.173" fill="#258784"/><path d="M2.7,37.84c-.128.042-.25.071-.376.109A26.91,26.91,0,0,0,4.831,42.4l.1-.022a38.05,38.05,0,0,1,2.355-6.369A40.3,40.3,0,0,1,2.7,37.84" fill="#258784"/><path d="M40.266,11.355a40.492,40.492,0,0,1,4.55-1.808c.582-.189,1.152-.353,1.717-.5.047-.183.085-.36.127-.54A27.072,27.072,0,0,0,42.993,5.25c-.168.041-.334.076-.5.122-.136.5-.282,1-.447,1.506a40.243,40.243,0,0,1-1.777,4.477" fill="#258784"/><path d="M35.77,44.744c1.32-1.593,2.744-3.166,4.275-4.7s3.105-2.955,4.7-4.276a57.425,57.425,0,0,0,7.132-10.749A58.727,58.727,0,0,0,39.713,33.36v.831h-.9c-.73.8-1.473,1.594-2.251,2.371q-1.326,1.324-2.7,2.554a59.182,59.182,0,0,0-8.852,12.762A57.4,57.4,0,0,0,35.77,44.744" fill="#258784"/><path d="M48.745,19.561c1.253-.578,2.5-1.069,3.734-1.5a26.728,26.728,0,0,0-1.715-3.889c-.1.353-.2.7-.317,1.065a39.778,39.778,0,0,1-1.7,4.321" fill="#258784"/><path d="M44.505,15.458a40.046,40.046,0,0,1,4.472-1.772c.438-.142.864-.26,1.291-.378a27.132,27.132,0,0,0-2.816-3.925c-.254.06-.506.117-.764.186-.135.49-.28.985-.443,1.489a40.084,40.084,0,0,1-1.74,4.4" fill="#258784"/><path d="M4.846,27.2a6.973,6.973,0,0,1,5.824-7.084c1.378-1.681,2.873-3.341,4.488-4.956C21.818,8.5,29.218,3.8,35.886,1.5A26.952,26.952,0,0,0,27,0c-.2,0-.4.011-.6.015a61.4,61.4,0,0,0-15.147,11.24A61.405,61.405,0,0,0,.015,26.4c0,.2-.015.4-.015.6a26.941,26.941,0,0,0,1.5,8.885A44.709,44.709,0,0,1,4.943,28.4a8.066,8.066,0,0,1-.1-1.2" fill="#258784"/><path d="M7.38,35.8c.355-.748.743-1.5,1.152-2.259a6.827,6.827,0,0,1-3.475-4.536,43.18,43.18,0,0,0-3.342,7.473q.255.677.544,1.335c.131-.04.259-.073.391-.116a40.066,40.066,0,0,0,4.73-1.9" fill="#258784"/><path d="M25.62.035A27,27,0,0,0,.035,25.621,62.077,62.077,0,0,1,11.01,11.01,62.08,62.08,0,0,1,25.62.035" fill="#258784"/><path d="M11.279,20.022a8.582,8.582,0,0,1,1.021-.067,6.619,6.619,0,0,1,4.713,1.77c.739-.814,1.5-1.623,2.293-2.419A60.682,60.682,0,0,1,35.8,7.38a40.191,40.191,0,0,0,1.9-4.729c.043-.132.076-.26.116-.391q-.656-.288-1.33-.542C29.769,3.928,22.23,8.669,15.449,15.45c-1.492,1.492-2.88,3.023-4.17,4.572" fill="#258784"/><path d="M42.382,4.926c.008-.032.014-.063.023-.1a26.927,26.927,0,0,0-4.453-2.509c-.039.126-.07.248-.112.375a40.09,40.09,0,0,1-1.826,4.584,38.041,38.041,0,0,1,6.368-2.355" fill="#258784"/></g></svg>