<svg xmlns="http://www.w3.org/2000/svg" width="79.544" height="54" viewBox="0 0 79.544 54"><g transform="translate(-864.999 -6787)"><path d="M0,27A26.93,26.93,0,0,1,2.184,16.35c4.976-1.534,6.584-2.737,8.537-4.193a18.642,18.642,0,0,1,4.386-2.415,4.047,4.047,0,0,1,5.5,2.091c1.146,1.836.989,5.129,6.395,5.738V16.8l-.109-.022a5.548,5.548,0,0,1-2.762-1.221,6.353,6.353,0,0,1-1.527-2.93,22.614,22.614,0,0,0-.929-2.986,4.35,4.35,0,0,0-4.74-2.915,10.677,10.677,0,0,0-5.991,2.615A24.926,24.926,0,0,1,3.609,13.5,27,27,0,0,1,27,0V3.244l1.269,3.911h4.113L29.058,9.574l1.269,3.908L27,11.068V3.244L25.729,7.155H21.619l3.326,2.419-1.273,3.908L27,11.068v5.7a2.348,2.348,0,0,0,.679-.053,5.046,5.046,0,0,0,3.251-2.788,23.709,23.709,0,0,0,.878-2.886,10.962,10.962,0,0,1,.72-1.892,4.408,4.408,0,0,1,4.6-2.4,10.2,10.2,0,0,1,5.826,2.578,28.652,28.652,0,0,0,11.526,5.529,16.394,16.394,0,0,0,4.035.448,5.934,5.934,0,0,1-5.107,1.49,25.237,25.237,0,0,1-9.734-4.222,24.766,24.766,0,0,0-4.363-2.7c-2.509-1.094-4.726-.444-6,1.979-.388.746-.8,1.679-1.138,2.448-.911,2.1-3.542,3.177-5.177,3.352v1.041c2.236-.146,4.643-.97,5.67-3.012.459-.917.892-1.844,1.366-2.751,1.194-2.3,3.236-2.867,5.449-1.486A37.647,37.647,0,0,0,43.51,13.9a83.224,83.224,0,0,0,7.872,3.617,5.85,5.85,0,0,0,1.053.272,3.705,3.705,0,0,1-2.2.311,19.82,19.82,0,0,1-5.614-1.251,4.549,4.549,0,0,0,1.284,1.37c.34.244.717.436,1.075.654.09.051.228.09.19.223a3.661,3.661,0,0,1-2.183-.014,27.578,27.578,0,0,1-3.449-1.085c-.217-.083-.433-.165-.751-.289.213.511.605.707.888.989s.556.531.828.8c.086.087.314.281.161.318a8.2,8.2,0,0,1-3.371-.91c-.582-.27-1.318-.68-1.892-.952a.735.735,0,0,0-.918.282c-.359.46,1.093,1.534,1.093,1.534H34.669a2.469,2.469,0,0,1,1.325,1.758,4.465,4.465,0,0,1-1.467,4.514,21.548,21.548,0,0,1-4.5,2.7,5.143,5.143,0,0,0-.717.4c-.306.232-.283.5.022.721A6.014,6.014,0,0,0,30,30.22a4.8,4.8,0,0,1,2.075,1.824c.952,1.654.754,2.8-.407,3.849-.72.653-1.542,1.172-2.284,1.794-.653.546-.676.736-.045,1.281a9.437,9.437,0,0,1,1.885,2.124,2.656,2.656,0,0,1-.086,3.132,15.063,15.063,0,0,1-2.071,2.258c-.6.585-.575.989.123,1.455a2.386,2.386,0,0,1,1.086,2.146,2.752,2.752,0,0,1-.9,1.885c-.482.519-1.031.978-1.553,1.463-.142.128-.254.4-.478.269s-.112-.4-.064-.6a2.5,2.5,0,0,1,.471-.982c.247-.318.492-.638.724-.966A1.445,1.445,0,0,0,28.308,49a5.6,5.6,0,0,0-.54-.463,1.537,1.537,0,0,1-.314-2.422,5.519,5.519,0,0,1,.832-.87c.385-.336.769-.676,1.124-1.045a1.9,1.9,0,0,0,.011-2.99,13.638,13.638,0,0,0-1.672-1.5A1.808,1.808,0,0,1,27,38.435c0-.075,0-.149,0-.224a1.766,1.766,0,0,1,.712-1.243c.44-.355.926-.653,1.4-.968a5.969,5.969,0,0,0,1.232-1.085,1.692,1.692,0,0,0-.056-2.464,4.3,4.3,0,0,0-1.538-1.031,4.3,4.3,0,0,1-1.075-.653,1.741,1.741,0,0,1-.108-2.646,4.185,4.185,0,0,1,1.321-.762,21.438,21.438,0,0,0,3.7-2.027,4.811,4.811,0,0,0,1.116-1.045,1.807,1.807,0,0,0,.116-2.012,1.565,1.565,0,0,0-1.762-.552,2.205,2.205,0,0,0-1.53,1.056,12.619,12.619,0,0,1-.814,1.3,1.468,1.468,0,0,1-2.049.347c-.862-.65-.7-1.758.381-2.354a2.844,2.844,0,0,0,1.045-.939,3.947,3.947,0,0,1,1.444-1.37H27V38.211a1.789,1.789,0,0,0-.717-1.243c-.44-.355-.925-.653-1.4-.968a6,6,0,0,1-1.232-1.085,1.693,1.693,0,0,1,.057-2.464,4.307,4.307,0,0,1,1.538-1.031,4.3,4.3,0,0,0,1.075-.653,1.74,1.74,0,0,0,.108-2.646,4.178,4.178,0,0,0-1.321-.762,21.462,21.462,0,0,1-3.7-2.027,4.811,4.811,0,0,1-1.116-1.045,1.813,1.813,0,0,1-.116-2.012,1.567,1.567,0,0,1,1.762-.552,2.2,2.2,0,0,1,1.53,1.056,12.962,12.962,0,0,0,.813,1.3,1.469,1.469,0,0,0,2.05.347c.862-.65.7-1.758-.381-2.354a2.849,2.849,0,0,1-1.045-.939,3.7,3.7,0,0,0-3.415-1.791c-.221,0-.441-.018-.657,0a2.854,2.854,0,0,0-2.83,2.18,4.467,4.467,0,0,0,1.467,4.514,21.531,21.531,0,0,0,4.5,2.7,5.135,5.135,0,0,1,.716.4c.306.232.284.5-.022.721A5.994,5.994,0,0,1,24,30.22a4.819,4.819,0,0,0-2.076,1.824c-.948,1.654-.754,2.8.407,3.849.72.653,1.542,1.172,2.284,1.794.653.546.679.736.045,1.281a9.453,9.453,0,0,0-1.885,2.124,2.657,2.657,0,0,0,.086,3.132,14.921,14.921,0,0,0,2.076,2.258c.593.585.571.989-.127,1.455a2.4,2.4,0,0,0-1.089,2.146,2.77,2.77,0,0,0,.9,1.885c.481.519,1.03.978,1.553,1.463.141.128.254.4.477.269s.116-.4.063-.6a2.5,2.5,0,0,0-.47-.982c-.247-.318-.492-.638-.724-.966A1.446,1.446,0,0,1,25.691,49a6.045,6.045,0,0,1,.542-.463,1.536,1.536,0,0,0,.314-2.422,5.528,5.528,0,0,0-.833-.87c-.384-.336-.769-.676-1.119-1.045a1.9,1.9,0,0,1-.015-2.99,13.589,13.589,0,0,1,1.672-1.5A1.817,1.817,0,0,0,27,38.435V54A27,27,0,0,1,0,27Z" transform="translate(864.999 6787)" fill="#495ea4"/><text transform="translate(911.543 6824.799)" fill="#495ea4" font-size="11" font-family="Helvetica-Light, Helvetica" font-weight="300" letter-spacing="0.025em"><tspan x="0" y="0">HIPAA</tspan></text></g></svg>