<svg xmlns="http://www.w3.org/2000/svg" xmlns:xlink="http://www.w3.org/1999/xlink" width="66.08" height="54" viewBox="0 0 66.08 54"><defs><clipPath id="a"><rect width="66.08" height="54" fill="none"/></clipPath></defs><g clip-path="url(#a)"><g transform="translate(0 0.03)"><rect width="66.08" height="53.965" fill="#fff" opacity="0"/></g><rect width="38.614" height="12.274" rx="6" transform="translate(0 41.758)" fill="#0d0d0d"/><g clip-path="url(#a)"><path d="M14.88,84.722h.613V87.3a3.877,3.877,0,0,1-1.192.678,4.016,4.016,0,0,1-1.382.247,3.671,3.671,0,0,1-3.167-1.79,3.442,3.442,0,0,1-.493-1.8,3.393,3.393,0,0,1,.493-1.79,3.6,3.6,0,0,1,1.343-1.292,3.721,3.721,0,0,1,1.855-.477,3.9,3.9,0,0,1,1.383.251,3.794,3.794,0,0,1,1.181.7l-.4.493a3.067,3.067,0,0,0-1-.618,3.234,3.234,0,0,0-1.166-.216,2.926,2.926,0,0,0-1.5.4,3,3,0,0,0-1.086,1.071,2.828,2.828,0,0,0-.4,1.478,2.875,2.875,0,0,0,.4,1.493A3,3,0,0,0,12.959,87.6a3.142,3.142,0,0,0,1-.166,3.436,3.436,0,0,0,.92-.468Z" transform="translate(-4.16 -36.774)" fill="#effbfa"/><path d="M28.618,81.549a3.623,3.623,0,0,1,1.333,1.292,3.393,3.393,0,0,1,.493,1.79,3.442,3.442,0,0,1-.493,1.8,3.705,3.705,0,0,1-6.355,0,3.447,3.447,0,0,1-.492-1.8,3.4,3.4,0,0,1,.492-1.79,3.623,3.623,0,0,1,1.333-1.292,3.8,3.8,0,0,1,3.689,0m-3.323.538a2.957,2.957,0,0,0-1.086,1.066,2.828,2.828,0,0,0-.4,1.478,2.883,2.883,0,0,0,.4,1.488A2.966,2.966,0,0,0,25.3,87.2a2.9,2.9,0,0,0,1.488.4,2.86,2.86,0,0,0,1.473-.4,2.978,2.978,0,0,0,1.081-1.08,2.884,2.884,0,0,0,.4-1.488,2.829,2.829,0,0,0-.4-1.478,2.968,2.968,0,0,0-1.081-1.066,2.9,2.9,0,0,0-1.473-.392,2.943,2.943,0,0,0-1.488.392" transform="translate(-10.381 -36.774)" fill="#effbfa"/><path d="M39.405,81.181H40.1v6.4h3.1v.623H39.405Z" transform="translate(-17.706 -36.823)" fill="#effbfa"/><path d="M53.355,81.645a3.485,3.485,0,0,1,0,6.1,3.751,3.751,0,0,1-1.85.463H48.695V81.182H51.52a3.7,3.7,0,0,1,1.835.463M53,87.2a2.892,2.892,0,0,0-.015-5.017,2.916,2.916,0,0,0-1.473-.382H49.389v5.781h2.152A2.867,2.867,0,0,0,53,87.2" transform="translate(-21.88 -36.823)" fill="#effbfa"/><path d="M78.6,86.985v1.176H73.391v-.975l2.654-2.735a4.258,4.258,0,0,0,.613-.754,1.274,1.274,0,0,0,.231-.643.7.7,0,0,0-.3-.6,1.409,1.409,0,0,0-.834-.216,2.444,2.444,0,0,0-.986.231,3.788,3.788,0,0,0-.985.643l-.533-1.035a5.207,5.207,0,0,1,1.312-.749,3.8,3.8,0,0,1,1.383-.267,3.184,3.184,0,0,1,1.226.221,1.9,1.9,0,0,1,.83.628,1.559,1.559,0,0,1,.3.941,2.091,2.091,0,0,1-.352,1.086,7.61,7.61,0,0,1-.985,1.236l-1.79,1.81Z" transform="translate(-32.914 -36.77)" fill="#0d0d0d"/><path d="M89.546,81.988a4.865,4.865,0,0,1,0,5.3,3.179,3.179,0,0,1-4.484,0,4.867,4.867,0,0,1,0-5.3,3.179,3.179,0,0,1,4.484,0m-3.479.749a4.7,4.7,0,0,0,0,3.806,1.553,1.553,0,0,0,2.473,0,4.7,4.7,0,0,0,0-3.806,1.561,1.561,0,0,0-2.473,0" transform="translate(-37.869 -36.77)" fill="#0d0d0d"/><path d="M101.644,86.985v1.176H96.435v-.975l2.655-2.735A4.28,4.28,0,0,0,99.7,83.7a1.274,1.274,0,0,0,.231-.643.694.694,0,0,0-.3-.6,1.412,1.412,0,0,0-.835-.216,2.441,2.441,0,0,0-.985.231,3.778,3.778,0,0,0-.985.643l-.533-1.035a5.2,5.2,0,0,1,1.312-.749,3.8,3.8,0,0,1,1.383-.267,3.189,3.189,0,0,1,1.227.221,1.9,1.9,0,0,1,.829.628,1.555,1.555,0,0,1,.3.941,2.091,2.091,0,0,1-.352,1.086A7.609,7.609,0,0,1,100,85.175l-1.79,1.81Z" transform="translate(-43.269 -36.77)" fill="#0d0d0d"/><path d="M111.889,84.7a1.662,1.662,0,0,1,.578,1.317,2.05,2.05,0,0,1-.342,1.171,2.266,2.266,0,0,1-.975.795,3.555,3.555,0,0,1-1.478.286,4.765,4.765,0,0,1-1.412-.216,3.983,3.983,0,0,1-1.192-.578l.533-1.046a3.1,3.1,0,0,0,.936.537,3.031,3.031,0,0,0,1.046.186,1.929,1.929,0,0,0,1.151-.3.953.953,0,0,0,.417-.814.9.9,0,0,0-.412-.8,2.1,2.1,0,0,0-1.176-.276H108.5v-.814l1.89-1.83H107.42l-.01-1.146h4.705v.835l-2.152,2.061.372.04a2.683,2.683,0,0,1,1.553.593" transform="translate(-48.109 -36.819)" fill="#0d0d0d"/><rect width="0.699" height="7.085" transform="translate(0.041 31.272)" fill="#0d0d0d"/><path d="M9.464,60.526a2.071,2.071,0,0,1,.542,1.515v3.264H9.317V62.2A1.611,1.611,0,0,0,8.9,61.028,1.543,1.543,0,0,0,7.746,60.6a1.8,1.8,0,0,0-1.313.507,2.08,2.08,0,0,0-.562,1.338v2.859H5.192V59.994h.679v1.236a1.973,1.973,0,0,1,.806-.932,2.572,2.572,0,0,1,1.292-.324,2,2,0,0,1,1.5.552" transform="translate(-2.333 -26.948)" fill="#0d0d0d"/><path d="M19.42,63.965a2.172,2.172,0,0,1-1.176.4,1.262,1.262,0,0,1-.963-.375,1.581,1.581,0,0,1-.355-1.125V59.7h-.76l-.01-.527h.77V57.8h.679V59.17l1.723-.01V59.7H17.605v3.051q0,.984.73.983a1.746,1.746,0,0,0,.882-.284Z" transform="translate(-7.259 -25.972)" fill="#0d0d0d"/><path d="M27.849,60.759a3.029,3.029,0,0,1,.6,2.113H24.018a2.036,2.036,0,0,0,.628,1.373,1.939,1.939,0,0,0,1.378.522,2.416,2.416,0,0,0,.943-.182,2.167,2.167,0,0,0,.75-.517l.385.385a2.639,2.639,0,0,1-.927.644,3.04,3.04,0,0,1-1.191.228,2.721,2.721,0,0,1-1.368-.339,2.428,2.428,0,0,1-.938-.948,3,3,0,0,1,0-2.773,2.423,2.423,0,0,1,.938-.953,2.685,2.685,0,0,1,1.348-.339,2.3,2.3,0,0,1,1.885.785m-.01,1.586a1.945,1.945,0,0,0-.552-1.323,1.8,1.8,0,0,0-1.313-.492,1.9,1.9,0,0,0-1.338.5,1.988,1.988,0,0,0-.618,1.318Z" transform="translate(-10.487 -26.948)" fill="#0d0d0d"/><path d="M36.843,60.3a2.182,2.182,0,0,1,1.181-.329v.638a1.818,1.818,0,0,0-1.353.492,2.07,2.07,0,0,0-.583,1.363v2.838h-.679V59.994h.679v1.236a2.033,2.033,0,0,1,.755-.927" transform="translate(-15.91 -26.948)" fill="#0d0d0d"/><path d="M46.684,60.526a2.071,2.071,0,0,1,.542,1.515v3.264h-.689V62.2a1.611,1.611,0,0,0-.415-1.176,1.543,1.543,0,0,0-1.156-.426,1.8,1.8,0,0,0-1.313.507,2.08,2.08,0,0,0-.562,1.338v2.859h-.679V59.994h.679v1.236A1.973,1.973,0,0,1,43.9,60.3a2.572,2.572,0,0,1,1.292-.324,2,2,0,0,1,1.5.552" transform="translate(-19.057 -26.948)" fill="#0d0d0d"/><path d="M57.65,65.306l-.01-.892a1.928,1.928,0,0,1-.821.694,2.818,2.818,0,0,1-1.166.228,2.067,2.067,0,0,1-.948-.208,1.511,1.511,0,0,1-.856-1.393,1.277,1.277,0,0,1,.532-1.085,2.41,2.41,0,0,1,1.465-.4h1.784v-.405a1.257,1.257,0,0,0-.375-.973,1.565,1.565,0,0,0-1.095-.345,2.874,2.874,0,0,0-1.713.639l-.3-.466a4.53,4.53,0,0,1,1.024-.552,3.254,3.254,0,0,1,1.115-.177,2.133,2.133,0,0,1,1.49.481,1.745,1.745,0,0,1,.537,1.333l.01,3.517Zm-.674-.867a1.617,1.617,0,0,0,.664-.927v-.73H55.927a1.991,1.991,0,0,0-1.064.233.774.774,0,0,0-.365.7.944.944,0,0,0,.349.765,1.414,1.414,0,0,0,.928.289,2.107,2.107,0,0,0,1.2-.329" transform="translate(-24.196 -26.948)" fill="#0d0d0d"/><path d="M67.46,63.965a2.172,2.172,0,0,1-1.176.4,1.263,1.263,0,0,1-.963-.375,1.581,1.581,0,0,1-.355-1.125V59.7h-.76l-.01-.527h.77V57.8h.679V59.17l1.723-.01V59.7H65.645v3.051q0,.984.73.983a1.747,1.747,0,0,0,.882-.284Z" transform="translate(-28.845 -25.972)" fill="#0d0d0d"/><path d="M73.074,56.5a.47.47,0,0,1,.132.339.478.478,0,0,1-.137.345.442.442,0,0,1-.33.142.452.452,0,0,1-.339-.142.477.477,0,0,1-.137-.345.468.468,0,0,1,.476-.476.445.445,0,0,1,.335.137m-.679,1.87h.679v5.311H72.4Z" transform="translate(-32.47 -25.327)" fill="#0d0d0d"/><path d="M80.6,60.313a2.448,2.448,0,0,1,.953.948,2.746,2.746,0,0,1,.345,1.378,2.8,2.8,0,0,1-.345,1.394,2.438,2.438,0,0,1-.953.953,2.967,2.967,0,0,1-2.757,0,2.438,2.438,0,0,1-.953-.953,2.8,2.8,0,0,1-.345-1.394,2.746,2.746,0,0,1,.345-1.378,2.449,2.449,0,0,1,.953-.948,2.971,2.971,0,0,1,2.757,0m-2.412.512a1.823,1.823,0,0,0-.709.74,2.465,2.465,0,0,0,0,2.179,1.823,1.823,0,0,0,.709.74,2.162,2.162,0,0,0,2.068,0,1.826,1.826,0,0,0,.709-.74,2.465,2.465,0,0,0,0-2.179,1.826,1.826,0,0,0-.709-.74,2.158,2.158,0,0,0-2.068,0" transform="translate(-34.393 -26.948)" fill="#0d0d0d"/><path d="M93.41,60.526a2.071,2.071,0,0,1,.542,1.515v3.264h-.689V62.2a1.611,1.611,0,0,0-.415-1.176,1.543,1.543,0,0,0-1.156-.426,1.8,1.8,0,0,0-1.313.507,2.08,2.08,0,0,0-.562,1.338v2.859h-.679V59.994h.679v1.236a1.973,1.973,0,0,1,.806-.932,2.572,2.572,0,0,1,1.292-.324,2,2,0,0,1,1.5.552" transform="translate(-40.053 -26.948)" fill="#0d0d0d"/><path d="M104.375,65.306l-.01-.892a1.928,1.928,0,0,1-.821.694,2.818,2.818,0,0,1-1.166.228,2.067,2.067,0,0,1-.948-.208,1.511,1.511,0,0,1-.856-1.393,1.277,1.277,0,0,1,.532-1.085,2.41,2.41,0,0,1,1.465-.4h1.784v-.405a1.257,1.257,0,0,0-.375-.973,1.565,1.565,0,0,0-1.095-.345,2.874,2.874,0,0,0-1.713.639l-.3-.466a4.529,4.529,0,0,1,1.024-.552,3.254,3.254,0,0,1,1.115-.177,2.133,2.133,0,0,1,1.49.481,1.745,1.745,0,0,1,.537,1.333l.01,3.517Zm-.674-.867a1.617,1.617,0,0,0,.664-.927v-.73h-1.713a1.991,1.991,0,0,0-1.064.233.774.774,0,0,0-.365.7.944.944,0,0,0,.349.765,1.414,1.414,0,0,0,.928.289,2.107,2.107,0,0,0,1.2-.329" transform="translate(-45.191 -26.948)" fill="#0d0d0d"/><rect width="0.679" height="7.52" transform="translate(61.781 30.836)" fill="#0d0d0d"/><path d="M110.153,45a1.426,1.426,0,0,1,.117-.579,1.473,1.473,0,0,1,1.909-.769,1.5,1.5,0,0,1,.467.3,1.465,1.465,0,0,1,.316.457,1.389,1.389,0,0,1,.117.572,1.428,1.428,0,0,1-.117.579,1.433,1.433,0,0,1-.782.768,1.481,1.481,0,0,1-1.129,0,1.468,1.468,0,0,1-.464-.3,1.45,1.45,0,0,1-.316-.456,1.388,1.388,0,0,1-.117-.572m.233,0a1.242,1.242,0,0,0,.1.486,1.211,1.211,0,0,0,.263.39,1.255,1.255,0,0,0,.39.261,1.25,1.25,0,0,0,.96,0,1.227,1.227,0,0,0,.389-.263,1.207,1.207,0,0,0,.264-.4,1.271,1.271,0,0,0,.1-.493,1.25,1.25,0,0,0-.1-.488,1.181,1.181,0,0,0-.264-.392,1.213,1.213,0,0,0-.87-.353,1.209,1.209,0,0,0-.48.1,1.247,1.247,0,0,0-.39.262,1.2,1.2,0,0,0-.263.394,1.292,1.292,0,0,0-.1.5m.688-.839h.615a.716.716,0,0,1,.449.115.443.443,0,0,1,.145.369.405.405,0,0,1-.129.332.583.583,0,0,1-.316.124l.483.741h-.254l-.46-.721h-.3v.721h-.233Zm.233.749h.289c.057,0,.113,0,.167-.006a.47.47,0,0,0,.146-.033.228.228,0,0,0,.1-.083.274.274,0,0,0,.037-.156.265.265,0,0,0-.033-.139.215.215,0,0,0-.088-.079.378.378,0,0,0-.123-.035,1.229,1.229,0,0,0-.134-.008h-.363Z" transform="translate(-49.495 -19.564)" fill="#0d0d0d"/><path d="M22.867.054v26.4H17.343V14.58H5.505V26.455H0V.054H5.505V9.48H17.343V.054Z" transform="translate(0 -0.024)" fill="#e31019"/><path d="M56.076.02V21.34H69.129v5.1H50.553V.02Z" transform="translate(-22.715 -0.009)" fill="#e31019"/><path d="M97.949,5.152H84.883V0h19.338V4.928l-10.565,21.5H87.123Z" transform="translate(-38.141 0)" fill="#e31019"/></g></g></svg>