<svg xmlns="http://www.w3.org/2000/svg" width="229.128" height="49.544" viewBox="0 0 229.128 49.544"><g transform="translate(0.291 0.25)"><path d="M10.638,19.843v5.444l9.781,15.14L46.361,3.768H44.319L21.1,28.194a1,1,0,0,1-1.405.044Z" fill="#2fada9"/><rect width="2.381" height="11.646" transform="translate(103.582 12.875)" fill="#0d0d0d"/><path d="M107.865,21.3a6.556,6.556,0,0,0,3.4,1.159c.869,0,1.513-.37,1.513-1.242,0-1.076-1.019-1.174-2.412-1.655-1.5-.53-2.845-1.319-2.845-3.346,0-2.172,1.527-3.523,3.807-3.523a7.043,7.043,0,0,1,3.31.837V16.06a6.539,6.539,0,0,0-3.324-1.127c-.809,0-1.393.322-1.393,1.094,0,1.03,1,1.11,2.306,1.573,1.632.579,2.951,1.4,2.951,3.458,0,2.269-1.6,3.636-3.939,3.636a7.578,7.578,0,0,1-3.37-.82Z" fill="#0d0d0d"/><path d="M116.086,18.7a5.67,5.67,0,1,1,11.322-.656,5.522,5.522,0,0,1,0,.656,5.67,5.67,0,1,1-11.322.656,5.522,5.522,0,0,1,0-.656m8.938,0a3.3,3.3,0,0,0-6.56-.76,3.22,3.22,0,0,0,0,.76,3.3,3.3,0,1,0,6.56,0" fill="#0d0d0d"/><path d="M107.105,29.7a4,4,0,0,1,1.837.433v1.2a3.25,3.25,0,0,0-1.837-.592,2.343,2.343,0,1,0,0,4.686h.063a3.082,3.082,0,0,0,1.874-.636v1.218a3.932,3.932,0,0,1-1.928.473,3.4,3.4,0,1,1-.275-6.785c.088,0,.177,0,.265,0" fill="#0d0d0d"/><path d="M110.159,29.8h3.93V30.83h-2.772v1.638h2.4v.983H111.31V35.36h2.865v1.029h-4.02Z" fill="#0d0d0d"/><path d="M115.237,29.8h1.92A3.907,3.907,0,0,1,119,30.13a1.75,1.75,0,0,1,.946,1.6,1.8,1.8,0,0,1-1.465,1.81l1.983,2.847h-1.356l-1.837-2.72h-.883v2.72h-1.155Zm2.075,2.975a1.894,1.894,0,0,0,1.146-.26.905.905,0,0,0-.137-1.5,2.617,2.617,0,0,0-1.228-.182h-.7V32.78Z" fill="#0d0d0d"/><path d="M122.712,30.83h-2.158V29.8h5.486V30.83h-2.174v5.558H122.71Z" fill="#0d0d0d"/><rect width="1.156" height="6.586" transform="translate(126.798 29.804)" fill="#0d0d0d"/><path d="M129.333,29.8h4.029V30.83h-2.874V32.6h2.5v.982h-2.5v2.811h-1.155Z" fill="#0d0d0d"/><rect width="1.155" height="6.586" transform="translate(134.227 29.804)" fill="#0d0d0d"/><path d="M136.761,29.8h3.93V30.83h-2.772v1.638h2.411v.983h-2.411V35.36h2.865v1.029h-4.02Z" fill="#0d0d0d"/><path d="M141.839,29.8h1.829a4.593,4.593,0,0,1,2.547.6,3.088,3.088,0,0,1,1.365,2.675,3.145,3.145,0,0,1-1.2,2.574,4.55,4.55,0,0,1-2.858.736h-1.683Zm1.783,5.557a3.2,3.2,0,0,0,1.956-.473,2.326,2.326,0,0,0,.314-3.273,2.374,2.374,0,0,0-.378-.365,3.305,3.305,0,0,0-1.9-.418h-.618v4.53Z" fill="#0d0d0d"/><path d="M131.219,12.4l-1.323.478v-1.3l2.755-1V17.2h-1.432Zm3.393,3.017a3.608,3.608,0,0,0,1.809.621c.612,0,1.017-.288,1.017-.783,0-.469-.351-.766-1.125-.766h-.648v-1.08h.612c.7,0,1.035-.324,1.035-.783,0-.495-.387-.783-.972-.783A3,3,0,0,0,135,12.22V10.941a2.859,2.859,0,0,1,1.449-.36c1.324,0,2.3.774,2.3,1.81a1.484,1.484,0,0,1-.964,1.414v.017a1.57,1.57,0,0,1,1.09,1.539,2.128,2.128,0,0,1-2.377,1.936,3.549,3.549,0,0,1-1.881-.5Zm4.175.369,3.322-5.1h1.27v4.033h.99V15.8h-.99V17.2h-1.423V15.8H138.8Zm3.2-1.071v-.945c0-.325.009-.676.018-.982l-.018-.009c-.171.288-.387.63-.585.936l-.639.981.009.019Zm2.825.611a1.636,1.636,0,0,1,1.1-1.575v-.018a1.38,1.38,0,0,1-.891-1.333,2.3,2.3,0,0,1,4.5,0,1.38,1.38,0,0,1-.891,1.333v.018a1.635,1.635,0,0,1,1.1,1.575c0,1.171-1.044,1.972-2.458,1.972s-2.458-.8-2.458-1.972m3.449-.1a.994.994,0,0,0-1.981,0,1,1,0,0,0,1.981,0m-.126-2.7a.869.869,0,1,0-.865.785.809.809,0,0,0,.865-.785m2.005,3.1a3.654,3.654,0,0,0,1.594.414c.72,0,1.216-.3,1.216-.8,0-.756-1.144-.909-1.882-.909a5.267,5.267,0,0,0-.765.055l.27-3.7h3.555l-.09,1.251H151.9l-.1,1.3c1.216.036,2.575.567,2.575,1.99,0,1.269-1.081,2.079-2.566,2.079a3.948,3.948,0,0,1-1.774-.4ZM131.678,24.1a3.432,3.432,0,0,0,1.09-2.062,1.138,1.138,0,0,0-1.288-1.162,2.545,2.545,0,0,0-1.458.486V20.5a2.844,2.844,0,0,1,1.5-.414,1.9,1.9,0,0,1,2.1,1.909,4.092,4.092,0,0,1-1.252,2.557l-1.134,1.359.009.018h2.611V26.7h-4.322l-.008-.017ZM135.332,26a4.394,4.394,0,0,1-.621-2.566,4.4,4.4,0,0,1,.621-2.566,2.017,2.017,0,0,1,3.205,0,4.4,4.4,0,0,1,.621,2.566A4.394,4.394,0,0,1,138.537,26a2.017,2.017,0,0,1-3.205,0m2.5-.442a3.7,3.7,0,0,0,.468-2.124,3.71,3.71,0,0,0-.468-2.125,1.14,1.14,0,0,0-1.8,0,3.71,3.71,0,0,0-.468,2.125,3.7,3.7,0,0,0,.468,2.124,1.138,1.138,0,0,0,1.8,0m3.7-4.33-1.494.577v-.82l2.349-.909V26.7h-.855Zm5.4-1.052-1.548,2.466c-.09.135-.18.279-.243.4l.018.009a1.679,1.679,0,0,1,.99-.288,1.934,1.934,0,0,1,1.981,1.971,2.218,2.218,0,0,1-4.43-.09,3.911,3.911,0,0,1,.793-2.115l1.458-2.349Zm-1.008,5.86a1.29,1.29,0,0,0,1.359-1.278,1.276,1.276,0,0,0-1.341-1.279,1.3,1.3,0,0,0-1.377,1.243,1.331,1.331,0,0,0,1.359,1.314" fill="#0d0d0d"/><rect width="2.381" height="11.646" transform="translate(166.582 12.875)" fill="#0d0d0d"/><path d="M170.865,21.3a6.556,6.556,0,0,0,3.4,1.159c.869,0,1.513-.37,1.513-1.242,0-1.076-1.019-1.174-2.412-1.655-1.5-.53-2.845-1.319-2.845-3.346,0-2.172,1.527-3.523,3.807-3.523a7.043,7.043,0,0,1,3.31.837V16.06a6.539,6.539,0,0,0-3.324-1.127c-.809,0-1.393.322-1.393,1.094,0,1.03,1,1.11,2.306,1.573,1.632.579,2.951,1.4,2.951,3.458,0,2.269-1.6,3.636-3.939,3.636a7.578,7.578,0,0,1-3.37-.82Z" fill="#0d0d0d"/><path d="M179.086,18.7a5.67,5.67,0,0,1,11.322-.656,5.522,5.522,0,0,1,0,.656,5.67,5.67,0,0,1-11.322.656,5.522,5.522,0,0,1,0-.656m8.938,0a3.3,3.3,0,0,0-6.56-.76,3.22,3.22,0,0,0,0,.76,3.3,3.3,0,1,0,6.56,0" fill="#0d0d0d"/><path d="M170.1,29.7a4,4,0,0,1,1.837.433v1.2a3.25,3.25,0,0,0-1.837-.592,2.343,2.343,0,1,0,0,4.686h.063a3.082,3.082,0,0,0,1.874-.636v1.218a3.932,3.932,0,0,1-1.928.473,3.4,3.4,0,1,1-.275-6.785c.088,0,.177,0,.265,0" fill="#0d0d0d"/><path d="M173.159,29.8h3.93V30.83h-2.772v1.638h2.4v.983H174.31V35.36h2.865v1.029h-4.02Z" fill="#0d0d0d"/><path d="M178.237,29.8h1.92A3.908,3.908,0,0,1,182,30.13a1.75,1.75,0,0,1,.946,1.6,1.8,1.8,0,0,1-1.465,1.81l1.983,2.847h-1.356l-1.837-2.72h-.883v2.72h-1.155Zm2.075,2.975a1.894,1.894,0,0,0,1.146-.26.905.905,0,0,0-.137-1.5,2.617,2.617,0,0,0-1.228-.182h-.7V32.78Z" fill="#0d0d0d"/><path d="M185.712,30.83h-2.158V29.8h5.486V30.83h-2.174v5.558H185.71Z" fill="#0d0d0d"/><rect width="1.156" height="6.586" transform="translate(189.798 29.804)" fill="#0d0d0d"/><path d="M192.333,29.8h4.029V30.83h-2.874V32.6h2.5v.982h-2.5v2.811h-1.155Z" fill="#0d0d0d"/><rect width="1.155" height="6.586" transform="translate(197.227 29.804)" fill="#0d0d0d"/><path d="M199.761,29.8h3.93V30.83h-2.772v1.638h2.411v.983h-2.411V35.36h2.865v1.029h-4.02Z" fill="#0d0d0d"/><path d="M204.839,29.8h1.829a4.593,4.593,0,0,1,2.547.6,3.088,3.088,0,0,1,1.365,2.675,3.145,3.145,0,0,1-1.2,2.574,4.55,4.55,0,0,1-2.858.736h-1.683Zm1.783,5.557a3.2,3.2,0,0,0,1.956-.473,2.326,2.326,0,0,0,.314-3.273,2.374,2.374,0,0,0-.378-.365,3.305,3.305,0,0,0-1.9-.418h-.618v4.53Z" fill="#0d0d0d"/><path d="M195.56,14.552c.648-.865.972-1.342.972-1.837a.853.853,0,0,0-.972-.856,2.612,2.612,0,0,0-1.522.585V11.1a2.811,2.811,0,0,1,1.657-.522,2.074,2.074,0,0,1,2.286,2.008,3.912,3.912,0,0,1-1.026,2.3l-.783,1.036.009.018h2.035V17.2h-4.637l-.009-.017Zm5.688-2.62h-2.593V10.681h4.592l.009.017-2.638,6.5h-1.5Zm2.673,4.483a4.1,4.1,0,0,1-.6-2.476,4.093,4.093,0,0,1,.6-2.475,2.276,2.276,0,0,1,3.6,0,4.086,4.086,0,0,1,.6,2.475,4.091,4.091,0,0,1-.6,2.476,2.278,2.278,0,0,1-3.6,0m2.457-.747a3.122,3.122,0,0,0,.307-1.737,3.17,3.17,0,0,0-.307-1.72.773.773,0,0,0-.657-.352.789.789,0,0,0-.658.352,3.282,3.282,0,0,0-.305,1.737,3.133,3.133,0,0,0,.305,1.72.81.81,0,0,0,.658.35.793.793,0,0,0,.657-.35m3.123.747a4.1,4.1,0,0,1-.6-2.476,4.093,4.093,0,0,1,.6-2.475,2.277,2.277,0,0,1,3.6,0,4.094,4.094,0,0,1,.594,2.475,4.1,4.1,0,0,1-.594,2.476,2.279,2.279,0,0,1-3.6,0m2.457-.747a3.122,3.122,0,0,0,.307-1.737,3.17,3.17,0,0,0-.307-1.72.773.773,0,0,0-.657-.352.786.786,0,0,0-.657.352,3.27,3.27,0,0,0-.306,1.737,3.122,3.122,0,0,0,.306,1.72.807.807,0,0,0,.657.35.792.792,0,0,0,.657-.35m3.708-3.269-1.324.478v-1.3l2.755-1V17.2h-1.431ZM195.785,24.1a3.43,3.43,0,0,0,1.089-2.062,1.138,1.138,0,0,0-1.287-1.162,2.545,2.545,0,0,0-1.458.486V20.5a2.843,2.843,0,0,1,1.5-.414,1.9,1.9,0,0,1,2.1,1.909,4.1,4.1,0,0,1-1.25,2.557l-1.135,1.359.009.018h2.611V26.7h-4.321l-.01-.017ZM199.438,26a4.4,4.4,0,0,1-.621-2.566,4.4,4.4,0,0,1,.621-2.566,2.018,2.018,0,0,1,3.206,0,4.4,4.4,0,0,1,.621,2.566A4.394,4.394,0,0,1,202.644,26a2.018,2.018,0,0,1-3.206,0m2.5-.442a3.7,3.7,0,0,0,.469-2.124,3.71,3.71,0,0,0-.469-2.125,1.139,1.139,0,0,0-1.8,0,3.71,3.71,0,0,0-.468,2.125,3.7,3.7,0,0,0,.468,2.124,1.137,1.137,0,0,0,1.8,0m3.7-4.33-1.494.576V20.99l2.349-.909V26.7h-.855Zm5.193-.279h-3.052v-.773h4.25l.009.017-2.719,6.5h-.891Z" fill="#0d0d0d"/><path d="M90.673.5H137.98a24,24,0,0,1,0,48H90.326" fill="none" stroke="rgba(47,173,169,0.4)" stroke-linecap="round" stroke-linejoin="round" stroke-width="1.5"/><path d="M153.78.5h50.307a24,24,0,0,1,0,48H153.433" fill="none" stroke="rgba(47,173,169,0.4)" stroke-linecap="round" stroke-linejoin="round" stroke-width="1.5"/><path d="M43.316,39.412A24,24,0,1,1,24.5.5H74.73a24,24,0,0,1,0,48H40.33" fill="none" stroke="rgba(47,173,169,0.4)" stroke-linecap="round" stroke-linejoin="round" stroke-width="1.5"/><rect width="2.381" height="11.646" transform="translate(44.582 12.875)" fill="#0d0d0d"/><path d="M48.865,21.3a6.556,6.556,0,0,0,3.4,1.159c.869,0,1.513-.37,1.513-1.242,0-1.076-1.019-1.174-2.412-1.655-1.5-.53-2.845-1.319-2.845-3.346,0-2.172,1.527-3.523,3.807-3.523a7.043,7.043,0,0,1,3.31.837V16.06a6.539,6.539,0,0,0-3.324-1.127c-.809,0-1.393.322-1.393,1.094,0,1.03,1,1.11,2.306,1.573,1.632.579,2.951,1.4,2.951,3.458,0,2.269-1.6,3.636-3.939,3.636a7.578,7.578,0,0,1-3.37-.82Z" fill="#0d0d0d"/><path d="M57.086,18.7a5.67,5.67,0,1,1,11.322-.656,5.522,5.522,0,0,1,0,.656,5.67,5.67,0,1,1-11.322.656,5.523,5.523,0,0,1,0-.656m8.938,0a3.3,3.3,0,0,0-6.56-.76,3.22,3.22,0,0,0,0,.76,3.3,3.3,0,1,0,6.56,0" fill="#0d0d0d"/><path d="M48.1,29.7a4,4,0,0,1,1.837.433v1.2a3.25,3.25,0,0,0-1.837-.592,2.343,2.343,0,1,0,0,4.686h.063a3.082,3.082,0,0,0,1.874-.636v1.218a3.932,3.932,0,0,1-1.928.473A3.4,3.4,0,1,1,47.84,29.7c.088,0,.177,0,.265,0" fill="#0d0d0d"/><path d="M51.159,29.8h3.93V30.83H52.317v1.638h2.4v.983H52.31V35.36h2.865v1.029h-4.02Z" fill="#0d0d0d"/><path d="M56.237,29.8h1.92A3.908,3.908,0,0,1,60,30.13a1.75,1.75,0,0,1,.946,1.6,1.8,1.8,0,0,1-1.465,1.81l1.983,2.847H60.112l-1.837-2.72h-.883v2.72H56.237Zm2.075,2.975a1.894,1.894,0,0,0,1.146-.26.905.905,0,0,0-.137-1.5,2.617,2.617,0,0,0-1.228-.182h-.7V32.78Z" fill="#0d0d0d"/><path d="M63.712,30.83H61.554V29.8H67.04V30.83H64.866v5.558H63.71Z" fill="#0d0d0d"/><rect width="1.156" height="6.586" transform="translate(67.798 29.804)" fill="#0d0d0d"/><path d="M70.333,29.8h4.029V30.83H71.488V32.6h2.5v.982h-2.5v2.811H70.333Z" fill="#0d0d0d"/><rect width="1.156" height="6.586" transform="translate(75.227 29.804)" fill="#0d0d0d"/><path d="M77.761,29.8h3.93V30.83H78.919v1.638H81.33v.983H78.919V35.36h2.865v1.029h-4.02Z" fill="#0d0d0d"/><path d="M82.839,29.8h1.829a4.593,4.593,0,0,1,2.547.6,3.088,3.088,0,0,1,1.365,2.675,3.145,3.145,0,0,1-1.2,2.574,4.55,4.55,0,0,1-2.858.736H82.838Zm1.783,5.557a3.2,3.2,0,0,0,1.956-.473,2.326,2.326,0,0,0,.314-3.273,2.373,2.373,0,0,0-.378-.365,3.305,3.305,0,0,0-1.9-.418h-.618v4.53Z" fill="#0d0d0d"/><path d="M71.66,17.2,73.2,14.714l-.008-.018a1.767,1.767,0,0,1-.559.081,1.98,1.98,0,0,1-2-2,2.254,2.254,0,0,1,2.431-2.189,2.225,2.225,0,0,1,2.412,2.215,4.18,4.18,0,0,1-.783,2.17L73.317,17.2Zm2.35-4.456a.968.968,0,0,0-.982-.964.955.955,0,0,0-.99.945.938.938,0,0,0,.99.937.927.927,0,0,0,.982-.918m2.627,3.672a4.1,4.1,0,0,1-.594-2.475,4.1,4.1,0,0,1,.594-2.476,2.277,2.277,0,0,1,3.6,0,4.089,4.089,0,0,1,.6,2.476,4.088,4.088,0,0,1-.6,2.475,2.279,2.279,0,0,1-3.6,0m2.458-.747a3.131,3.131,0,0,0,.306-1.737,3.174,3.174,0,0,0-.306-1.72.773.773,0,0,0-.657-.351.787.787,0,0,0-.658.351,3.279,3.279,0,0,0-.305,1.738,3.129,3.129,0,0,0,.305,1.719.807.807,0,0,0,.658.351.792.792,0,0,0,.657-.351m3.122.747a4.1,4.1,0,0,1-.594-2.475,4.1,4.1,0,0,1,.594-2.476,2.278,2.278,0,0,1,3.6,0,4.1,4.1,0,0,1,.594,2.476,4.1,4.1,0,0,1-.594,2.475,2.28,2.28,0,0,1-3.6,0m2.458-.747a3.131,3.131,0,0,0,.306-1.737,3.174,3.174,0,0,0-.306-1.72.773.773,0,0,0-.657-.351.785.785,0,0,0-.657.351,3.267,3.267,0,0,0-.306,1.738,3.118,3.118,0,0,0,.306,1.719.8.8,0,0,0,.657.351.792.792,0,0,0,.657-.351m3.7-3.268-1.324.477v-1.3l2.755-1V17.2H88.374Zm-15.7,11.7a3.425,3.425,0,0,0,1.09-2.061,1.139,1.139,0,0,0-1.288-1.163,2.547,2.547,0,0,0-1.458.487V20.5a2.853,2.853,0,0,1,1.5-.414,1.9,1.9,0,0,1,2.1,1.91,4.1,4.1,0,0,1-1.251,2.556l-1.135,1.36.009.017h2.611V26.7H70.535l-.009-.018ZM76.331,26a4.392,4.392,0,0,1-.621-2.565,4.4,4.4,0,0,1,.621-2.567,2.017,2.017,0,0,1,3.205,0,4.392,4.392,0,0,1,.621,2.567A4.385,4.385,0,0,1,79.536,26a2.017,2.017,0,0,1-3.205,0m2.5-.441A3.7,3.7,0,0,0,79.3,23.44a3.708,3.708,0,0,0-.468-2.125,1.138,1.138,0,0,0-1.8,0,3.708,3.708,0,0,0-.467,2.125,3.7,3.7,0,0,0,.467,2.124,1.14,1.14,0,0,0,1.8,0m3.7-4.33-1.494.576v-.819l2.35-.91V26.7h-.856Zm2.412,4.24A2.635,2.635,0,0,0,86.519,26c.846,0,1.459-.431,1.459-1.152,0-1.008-1.189-1.27-2.1-1.27a4.969,4.969,0,0,0-.729.055l.261-3.457h3.241l-.063.773H86.2l-.135,1.882c1.351,0,2.764.495,2.764,1.981a2.045,2.045,0,0,1-2.314,1.98,3.142,3.142,0,0,1-1.638-.431Z" fill="#0d0d0d"/></g></svg>