<svg xmlns="http://www.w3.org/2000/svg" xmlns:xlink="http://www.w3.org/1999/xlink" width="67.342" height="48.085" viewBox="0 0 67.342 48.085"><defs><clipPath id="a"><rect width="67.342" height="48.085" fill="none"/></clipPath><clipPath id="b"><rect width="67.343" height="48.085" fill="none"/></clipPath></defs><g clip-path="url(#a)"><g clip-path="url(#b)"><path d="M0,24.565A24.034,24.034,0,0,1,12.018,3.74V45.389A24.034,24.034,0,0,1,0,24.565" transform="translate(0 -0.41)" fill="#27006e"/><path d="M9.626,24.043A24.042,24.042,0,0,1,33.669,0V3.844s-12.021,4.982-12.021,20.2S33.669,43.573,33.669,43.573v4.512A24.042,24.042,0,0,1,9.626,24.043" transform="translate(-1.054)" fill="#53328c"/><path d="M45.669,0A24.043,24.043,0,1,0,69.711,24.043,24.042,24.042,0,0,0,45.669,0M36.548,26.35a4.529,4.529,0,0,1-.492-.012H33.424a1.1,1.1,0,0,0-1.1,1.1V31.6H29.211V26.769a3.111,3.111,0,0,1,2.064-2.939.083.083,0,0,0-.029-.16H29.212v-6.75h6.432v2.409a.083.083,0,0,0,.149.049l1.7-2.295a4.481,4.481,0,0,1,3.477,4.567,4.564,4.564,0,0,1-4.424,4.7m9.129-2.085a4.542,4.542,0,0,0,4.255,4.811q.111.007.222.008v.005a3.967,3.967,0,0,0,3.555-2.137l2.677,1.3a6.79,6.79,0,0,1-6.233,3.609,7.418,7.418,0,0,1-7.677-7.15c-.005-.147-.006-.295,0-.442a7.419,7.419,0,0,1,7.238-7.595c.148,0,.295,0,.442,0a6.751,6.751,0,0,1,6.233,3.587l-2.677,1.321a4.008,4.008,0,0,0-3.555-2.137,4.542,4.542,0,0,0-4.484,4.6q0,.111.008.222m16.237,7.328H58.8V16.921h3.117Z" transform="translate(-2.369)" fill="#7964a7"/><path d="M37.143,22.01a1.767,1.767,0,0,0-.182,0v0H33.645v4.049h3.37a2.07,2.07,0,0,0,2.093-1.98,2.021,2.021,0,0,0-1.965-2.075" transform="translate(-3.685 -2.411)" fill="#7964a7"/></g></g></svg>