<svg width="170" height="49" viewBox="0 0 170 49" fill="none" xmlns="http://www.w3.org/2000/svg">
<path opacity="0.6" fill-rule="evenodd" clip-rule="evenodd" d="M25.5266 11.4887L31.3407 0.492485H50.7037L25.5262 48.1111L0.348755 0.492485H19.7118L19.7119 0.492741H10.4207L25.5271 29.0634L40.6336 0.492741H31.3416L25.5271 11.4897L25.5266 11.4887ZM25.5262 11.4894L25.5266 11.4887L19.7127 0.492741H19.7119L25.5262 11.4894Z" fill="#181016"/>
<path d="M18.9147 0.992615H9.96009L25.5271 30.4342L41.0941 0.992615H32.1395L25.9691 12.6627L25.5271 13.4987L25.0851 12.6627L18.9147 0.992615Z" fill="#181016" stroke="#181016"/>
<path d="M66.0718 16.6799L69.0045 8.23755H70.4332L66.7486 18.1907H65.73L66.0718 16.6799ZM63.3306 8.23755L66.2359 16.6799L66.5982 18.1907H65.5797L61.9019 8.23755H63.3306ZM76.1956 16.4817V10.7942H77.4671V18.1907H76.2571L76.1956 16.4817ZM76.4348 14.9231L76.9612 14.9094C76.9612 15.4016 76.9088 15.8573 76.804 16.2766C76.7037 16.6913 76.5397 17.0514 76.3118 17.3567C76.0839 17.662 75.7854 17.9013 75.4163 18.0745C75.0472 18.2431 74.5983 18.3274 74.0696 18.3274C73.7096 18.3274 73.3792 18.275 73.0784 18.1702C72.7822 18.0653 72.527 17.9036 72.3128 17.6848C72.0986 17.4661 71.9322 17.1812 71.8138 16.8303C71.6998 16.4794 71.6429 16.0579 71.6429 15.5657V10.7942H72.9075V15.5793C72.9075 15.912 72.944 16.1877 73.0169 16.4065C73.0944 16.6207 73.1969 16.7916 73.3245 16.9192C73.4567 17.0422 73.6025 17.1288 73.762 17.179C73.9261 17.2291 74.0947 17.2542 74.2679 17.2542C74.8056 17.2542 75.2317 17.1516 75.5462 16.9465C75.8606 16.7369 76.0862 16.4566 76.2229 16.1057C76.3642 15.7502 76.4348 15.356 76.4348 14.9231ZM82.7441 18.3274C82.2292 18.3274 81.762 18.2408 81.3428 18.0676C80.9281 17.8899 80.5703 17.6415 80.2695 17.3225C79.9733 17.0035 79.7454 16.6252 79.5859 16.1877C79.4264 15.7502 79.3467 15.2717 79.3467 14.7522V14.4651C79.3467 13.8635 79.4355 13.328 79.6133 12.8586C79.791 12.3847 80.0326 11.9836 80.3379 11.6555C80.6432 11.3274 80.9896 11.079 81.377 10.9104C81.7643 10.7418 82.1654 10.6575 82.5801 10.6575C83.1087 10.6575 83.5645 10.7486 83.9473 10.9309C84.3346 11.1132 84.6514 11.3684 84.8975 11.6965C85.1436 12.0201 85.3258 12.4029 85.4443 12.845C85.5628 13.2825 85.6221 13.761 85.6221 14.2805V14.8479H80.0986V13.8157H84.3574V13.72C84.3392 13.3918 84.2708 13.0728 84.1523 12.7629C84.0384 12.453 83.8561 12.1978 83.6055 11.9973C83.3548 11.7968 83.013 11.6965 82.5801 11.6965C82.293 11.6965 82.0286 11.7581 81.7871 11.8811C81.5456 11.9996 81.3382 12.1773 81.165 12.4143C80.9919 12.6513 80.8574 12.9407 80.7617 13.2825C80.666 13.6243 80.6182 14.0185 80.6182 14.4651V14.7522C80.6182 15.1031 80.666 15.4335 80.7617 15.7434C80.862 16.0487 81.0055 16.3176 81.1924 16.55C81.3838 16.7825 81.6139 16.9648 81.8828 17.0969C82.1563 17.2291 82.4661 17.2952 82.8125 17.2952C83.2591 17.2952 83.6374 17.204 83.9473 17.0217C84.2572 16.8394 84.5283 16.5956 84.7607 16.2903L85.5264 16.8987C85.3669 17.1402 85.1641 17.3704 84.918 17.5891C84.6719 17.8079 84.3688 17.9856 84.0088 18.1223C83.6533 18.259 83.2318 18.3274 82.7441 18.3274ZM87.3991 17.5208C87.3991 17.3066 87.4652 17.1265 87.5974 16.9807C87.7341 16.8303 87.9301 16.7551 88.1853 16.7551C88.4405 16.7551 88.6342 16.8303 88.7663 16.9807C88.903 17.1265 88.9714 17.3066 88.9714 17.5208C88.9714 17.7304 88.903 17.9081 88.7663 18.054C88.6342 18.1998 88.4405 18.2727 88.1853 18.2727C87.9301 18.2727 87.7341 18.1998 87.5974 18.054C87.4652 17.9081 87.3991 17.7304 87.3991 17.5208ZM91.3842 10.7942H92.6557V19.0725C92.6557 19.5237 92.5828 19.9065 92.437 20.2209C92.2957 20.5354 92.0815 20.7724 91.7944 20.9319C91.5118 21.0959 91.1541 21.178 90.7211 21.178C90.6072 21.178 90.475 21.1666 90.3247 21.1438C90.1697 21.121 90.0398 21.0937 89.935 21.0618L89.9418 20.0432C90.0284 20.0614 90.1264 20.0751 90.2358 20.0842C90.3452 20.0979 90.4409 20.1047 90.5229 20.1047C90.7097 20.1047 90.867 20.0706 90.9946 20.0022C91.1222 19.9338 91.2179 19.8245 91.2817 19.6741C91.35 19.5237 91.3842 19.3232 91.3842 19.0725V10.7942ZM91.2543 8.83228C91.2543 8.6272 91.3181 8.45402 91.4457 8.31274C91.5733 8.17147 91.7579 8.10083 91.9995 8.10083C92.2456 8.10083 92.4324 8.17147 92.56 8.31274C92.6876 8.45402 92.7514 8.6272 92.7514 8.83228C92.7514 9.02824 92.6876 9.19686 92.56 9.33813C92.4324 9.47485 92.2456 9.54321 91.9995 9.54321C91.7579 9.54321 91.5733 9.47485 91.4457 9.33813C91.3181 9.19686 91.2543 9.02824 91.2543 8.83228ZM99.2863 16.2288C99.2863 16.0465 99.2453 15.8778 99.1632 15.7229C99.0858 15.5634 98.924 15.4198 98.6779 15.2922C98.4364 15.1601 98.0718 15.0461 97.5841 14.9504C97.174 14.8639 96.8026 14.7613 96.4699 14.6428C96.1418 14.5243 95.8615 14.3808 95.6291 14.2122C95.4012 14.0435 95.2257 13.8453 95.1027 13.6174C94.9797 13.3896 94.9181 13.123 94.9181 12.8176C94.9181 12.526 94.9819 12.2502 95.1095 11.9905C95.2417 11.7307 95.4263 11.5006 95.6632 11.3C95.9048 11.0995 96.1942 10.9423 96.5314 10.8284C96.8686 10.7144 97.2446 10.6575 97.6593 10.6575C98.2518 10.6575 98.7576 10.7623 99.1769 10.9719C99.5962 11.1816 99.9175 11.4618 100.141 11.8127C100.364 12.1591 100.476 12.5442 100.476 12.968H99.2111C99.2111 12.7629 99.1496 12.5647 99.0265 12.3733C98.908 12.1773 98.7326 12.0155 98.5002 11.8879C98.2723 11.7603 97.992 11.6965 97.6593 11.6965C97.3084 11.6965 97.0236 11.7512 96.8048 11.8606C96.5907 11.9654 96.4334 12.0999 96.3332 12.2639C96.2375 12.428 96.1896 12.6012 96.1896 12.7834C96.1896 12.9202 96.2124 13.0432 96.258 13.1526C96.3081 13.2574 96.3947 13.3554 96.5177 13.4465C96.6408 13.5331 96.814 13.6152 97.0373 13.6926C97.2606 13.7701 97.5454 13.8476 97.8918 13.925C98.4979 14.0618 98.9969 14.2258 99.3888 14.4172C99.7808 14.6086 100.072 14.8433 100.264 15.1213C100.455 15.3993 100.551 15.7366 100.551 16.1331C100.551 16.4566 100.483 16.7528 100.346 17.0217C100.214 17.2906 100.02 17.523 99.7648 17.719C99.5142 17.9104 99.2134 18.0608 98.8625 18.1702C98.5161 18.275 98.1265 18.3274 97.6935 18.3274C97.0418 18.3274 96.4904 18.2112 96.0392 17.9788C95.5881 17.7463 95.2463 17.4456 95.0138 17.0764C94.7814 16.7073 94.6652 16.3176 94.6652 15.9075H95.9367C95.9549 16.2538 96.0552 16.5295 96.2375 16.7346C96.4198 16.9351 96.6431 17.0787 96.9074 17.1653C97.1717 17.2473 97.4338 17.2883 97.6935 17.2883C98.0399 17.2883 98.3293 17.2428 98.5617 17.1516C98.7987 17.0605 98.9787 16.9351 99.1017 16.7756C99.2248 16.6161 99.2863 16.4338 99.2863 16.2288ZM70.522 28.8997V29.5286C70.522 30.276 70.4286 30.9459 70.2418 31.5383C70.0549 32.1308 69.786 32.6344 69.4351 33.0491C69.0842 33.4638 68.6627 33.7805 68.1705 33.9993C67.6828 34.218 67.136 34.3274 66.5298 34.3274C65.942 34.3274 65.4019 34.218 64.9097 33.9993C64.4221 33.7805 63.9983 33.4638 63.6382 33.0491C63.2828 32.6344 63.0071 32.1308 62.8111 31.5383C62.6151 30.9459 62.5172 30.276 62.5172 29.5286V28.8997C62.5172 28.1523 62.6129 27.4846 62.8043 26.8967C63.0002 26.3043 63.2759 25.8007 63.6314 25.386C63.9869 24.9667 64.4084 24.6477 64.8961 24.429C65.3882 24.2102 65.9283 24.1008 66.5162 24.1008C67.1223 24.1008 67.6692 24.2102 68.1568 24.429C68.649 24.6477 69.0705 24.9667 69.4214 25.386C69.7769 25.8007 70.0481 26.3043 70.2349 26.8967C70.4263 27.4846 70.522 28.1523 70.522 28.8997ZM69.2164 29.5286V28.886C69.2164 28.2935 69.1548 27.7694 69.0318 27.3137C68.9133 26.858 68.7379 26.4752 68.5054 26.1653C68.273 25.8554 67.9882 25.6207 67.6509 25.4612C67.3183 25.3017 66.94 25.2219 66.5162 25.2219C66.106 25.2219 65.7346 25.3017 65.4019 25.4612C65.0738 25.6207 64.7912 25.8554 64.5543 26.1653C64.3218 26.4752 64.1418 26.858 64.0142 27.3137C63.8866 27.7694 63.8228 28.2935 63.8228 28.886V29.5286C63.8228 30.1256 63.8866 30.6542 64.0142 31.1145C64.1418 31.5702 64.3241 31.9553 64.5611 32.2698C64.8026 32.5797 65.0875 32.8144 65.4156 32.9739C65.7483 33.1334 66.1197 33.2131 66.5298 33.2131C66.9582 33.2131 67.3388 33.1334 67.6714 32.9739C68.0041 32.8144 68.2844 32.5797 68.5123 32.2698C68.7447 31.9553 68.9201 31.5702 69.0386 31.1145C69.1571 30.6542 69.2164 30.1256 69.2164 29.5286ZM74.4729 34.1907H73.2083V26.0149C73.2083 25.4817 73.304 25.0328 73.4954 24.6682C73.6914 24.2991 73.9716 24.0211 74.3362 23.8342C74.7008 23.6428 75.1337 23.5471 75.635 23.5471C75.7809 23.5471 75.9267 23.5562 76.0725 23.5745C76.2229 23.5927 76.3688 23.62 76.51 23.6565L76.4417 24.6887C76.346 24.6659 76.2366 24.65 76.1136 24.6409C75.9951 24.6318 75.8766 24.6272 75.7581 24.6272C75.4892 24.6272 75.2568 24.6819 75.0608 24.7913C74.8694 24.8961 74.7236 25.051 74.6233 25.2561C74.5231 25.4612 74.4729 25.7141 74.4729 26.0149V34.1907ZM76.1136 26.7942V27.7649H72.0393V26.7942H76.1136ZM78.472 34.1907H77.2073V26.1516C77.2073 25.5911 77.3144 25.1171 77.5286 24.7297C77.7473 24.3424 78.0595 24.0484 78.4651 23.8479C78.8707 23.6474 79.3515 23.5471 79.9075 23.5471C80.2402 23.5471 80.5638 23.5881 80.8782 23.6702C81.1927 23.7476 81.5162 23.8456 81.8489 23.9641L81.6302 25.0305C81.4251 24.9485 81.1835 24.871 80.9055 24.7981C80.6276 24.7206 80.3268 24.6819 80.0032 24.6819C79.4609 24.6819 79.069 24.8049 78.8274 25.051C78.5904 25.2926 78.472 25.6594 78.472 26.1516V34.1907ZM79.9827 26.7942V27.7649H76.0384V26.7942H79.9827ZM82.471 26.7942V34.1907H81.2063V26.7942H82.471ZM87.7754 33.2883C88.0762 33.2883 88.3542 33.2268 88.6094 33.1038C88.8646 32.9807 89.0742 32.8121 89.2383 32.5979C89.4023 32.3792 89.4958 32.1308 89.5186 31.8528H90.7217C90.6989 32.2903 90.5508 32.6982 90.2773 33.0764C90.0085 33.4501 89.6553 33.7532 89.2178 33.9856C88.7803 34.2135 88.2995 34.3274 87.7754 34.3274C87.2194 34.3274 86.7341 34.2294 86.3193 34.0334C85.9092 33.8375 85.5674 33.5686 85.2939 33.2268C85.0251 32.885 84.8223 32.4931 84.6855 32.051C84.5534 31.6044 84.4873 31.1327 84.4873 30.636V30.3489C84.4873 29.8521 84.5534 29.3827 84.6855 28.9407C84.8223 28.4941 85.0251 28.0999 85.2939 27.7581C85.5674 27.4163 85.9092 27.1474 86.3193 26.9514C86.7341 26.7555 87.2194 26.6575 87.7754 26.6575C88.3542 26.6575 88.86 26.776 89.293 27.0129C89.7259 27.2454 90.0654 27.5644 90.3115 27.97C90.5622 28.371 90.6989 28.8267 90.7217 29.3372H89.5186C89.4958 29.0318 89.4092 28.7561 89.2588 28.51C89.113 28.2639 88.9124 28.068 88.6572 27.9221C88.4066 27.7717 88.1126 27.6965 87.7754 27.6965C87.388 27.6965 87.0622 27.774 86.7979 27.929C86.5381 28.0793 86.3307 28.2844 86.1758 28.5442C86.0254 28.7994 85.916 29.0842 85.8477 29.3987C85.7839 29.7086 85.752 30.0253 85.752 30.3489V30.636C85.752 30.9596 85.7839 31.2786 85.8477 31.593C85.9115 31.9075 86.0186 32.1923 86.1689 32.4475C86.3239 32.7027 86.5313 32.9078 86.791 33.0627C87.0553 33.2131 87.3835 33.2883 87.7754 33.2883ZM93.7976 26.7942V34.1907H92.5261V26.7942H93.7976ZM92.4304 24.8323C92.4304 24.6272 92.4919 24.454 92.615 24.3127C92.7426 24.1715 92.9294 24.1008 93.1755 24.1008C93.417 24.1008 93.6016 24.1715 93.7292 24.3127C93.8614 24.454 93.9275 24.6272 93.9275 24.8323C93.9275 25.0282 93.8614 25.1969 93.7292 25.3381C93.6016 25.4749 93.417 25.5432 93.1755 25.5432C92.9294 25.5432 92.7426 25.4749 92.615 25.3381C92.4919 25.1969 92.4304 25.0282 92.4304 24.8323ZM100.469 32.926V29.1184C100.469 28.8267 100.41 28.5738 100.291 28.3596C100.178 28.1409 100.004 27.9722 99.7719 27.8538C99.5395 27.7353 99.2524 27.676 98.9106 27.676C98.5916 27.676 98.3113 27.7307 98.0698 27.8401C97.8328 27.9495 97.6459 28.093 97.5092 28.2708C97.3771 28.4485 97.311 28.6399 97.311 28.845H96.0463C96.0463 28.5806 96.1147 28.3186 96.2514 28.0588C96.3881 27.7991 96.5841 27.5644 96.8393 27.3547C97.0991 27.1405 97.409 26.9719 97.769 26.8489C98.1336 26.7213 98.5392 26.6575 98.9858 26.6575C99.5235 26.6575 99.9975 26.7486 100.408 26.9309C100.822 27.1132 101.146 27.3889 101.378 27.7581C101.615 28.1226 101.734 28.5806 101.734 29.1321V32.5774C101.734 32.8235 101.754 33.0855 101.795 33.3635C101.841 33.6415 101.907 33.8808 101.994 34.0813V34.1907H100.674C100.61 34.0448 100.56 33.8512 100.524 33.6096C100.487 33.3635 100.469 33.1357 100.469 32.926ZM100.688 29.7063L100.702 30.595H99.4233C99.0633 30.595 98.742 30.6246 98.4594 30.6838C98.1769 30.7385 97.9399 30.8228 97.7485 30.9368C97.5571 31.0507 97.4112 31.1943 97.311 31.3674C97.2107 31.5361 97.1606 31.7343 97.1606 31.9622C97.1606 32.1946 97.213 32.4065 97.3178 32.5979C97.4226 32.7893 97.5799 32.942 97.7895 33.0559C98.0037 33.1653 98.2657 33.22 98.5756 33.22C98.963 33.22 99.3048 33.1379 99.601 32.9739C99.8972 32.8098 100.132 32.6093 100.305 32.3723C100.483 32.1353 100.579 31.9052 100.592 31.6819L101.132 32.2903C101.1 32.4817 101.014 32.6936 100.873 32.926C100.731 33.1584 100.542 33.3818 100.305 33.5959C100.073 33.8056 99.7947 33.981 99.4711 34.1223C99.1521 34.259 98.7921 34.3274 98.3911 34.3274C97.8898 34.3274 97.45 34.2294 97.0717 34.0334C96.698 33.8375 96.4064 33.5754 96.1967 33.2473C95.9916 32.9146 95.8891 32.5432 95.8891 32.1331C95.8891 31.7366 95.9666 31.3879 96.1215 31.0872C96.2765 30.7818 96.4998 30.5289 96.7914 30.3284C97.0831 30.1233 97.434 29.9683 97.8442 29.8635C98.2543 29.7587 98.7123 29.7063 99.2182 29.7063H100.688ZM105.377 23.6907V34.1907H104.106V23.6907H105.377ZM115.302 30.2874H112.643V29.2141H115.302C115.817 29.2141 116.234 29.1321 116.553 28.968C116.872 28.804 117.105 28.5761 117.251 28.2844C117.401 27.9928 117.476 27.6601 117.476 27.2864C117.476 26.9446 117.401 26.6233 117.251 26.3225C117.105 26.0217 116.872 25.7802 116.553 25.5979C116.234 25.4111 115.817 25.3176 115.302 25.3176H112.951V34.1907H111.631V24.2375H115.302C116.054 24.2375 116.69 24.3674 117.21 24.6272C117.729 24.887 118.123 25.247 118.392 25.7073C118.661 26.163 118.796 26.6848 118.796 27.2727C118.796 27.9107 118.661 28.4553 118.392 28.9065C118.123 29.3577 117.729 29.7017 117.21 29.9387C116.69 30.1711 116.054 30.2874 115.302 30.2874ZM124.831 32.926V29.1184C124.831 28.8267 124.772 28.5738 124.654 28.3596C124.54 28.1409 124.367 27.9722 124.134 27.8538C123.902 27.7353 123.615 27.676 123.273 27.676C122.954 27.676 122.673 27.7307 122.432 27.8401C122.195 27.9495 122.008 28.093 121.871 28.2708C121.739 28.4485 121.673 28.6399 121.673 28.845H120.409C120.409 28.5806 120.477 28.3186 120.614 28.0588C120.75 27.7991 120.946 27.5644 121.201 27.3547C121.461 27.1405 121.771 26.9719 122.131 26.8489C122.496 26.7213 122.901 26.6575 123.348 26.6575C123.886 26.6575 124.36 26.7486 124.77 26.9309C125.185 27.1132 125.508 27.3889 125.741 27.7581C125.978 28.1226 126.096 28.5806 126.096 29.1321V32.5774C126.096 32.8235 126.117 33.0855 126.158 33.3635C126.203 33.6415 126.269 33.8808 126.356 34.0813V34.1907H125.036C124.973 34.0448 124.923 33.8512 124.886 33.6096C124.85 33.3635 124.831 33.1357 124.831 32.926ZM125.05 29.7063L125.064 30.595H123.785C123.425 30.595 123.104 30.6246 122.822 30.6838C122.539 30.7385 122.302 30.8228 122.111 30.9368C121.919 31.0507 121.773 31.1943 121.673 31.3674C121.573 31.5361 121.523 31.7343 121.523 31.9622C121.523 32.1946 121.575 32.4065 121.68 32.5979C121.785 32.7893 121.942 32.942 122.152 33.0559C122.366 33.1653 122.628 33.22 122.938 33.22C123.325 33.22 123.667 33.1379 123.963 32.9739C124.259 32.8098 124.494 32.6093 124.667 32.3723C124.845 32.1353 124.941 31.9052 124.954 31.6819L125.494 32.2903C125.463 32.4817 125.376 32.6936 125.235 32.926C125.093 33.1584 124.904 33.3818 124.667 33.5959C124.435 33.8056 124.157 33.981 123.833 34.1223C123.514 34.259 123.154 34.3274 122.753 34.3274C122.252 34.3274 121.812 34.2294 121.434 34.0334C121.06 33.8375 120.769 33.5754 120.559 33.2473C120.354 32.9146 120.251 32.5432 120.251 32.1331C120.251 31.7366 120.329 31.3879 120.484 31.0872C120.639 30.7818 120.862 30.5289 121.154 30.3284C121.445 30.1233 121.796 29.9683 122.206 29.8635C122.617 29.7587 123.075 29.7063 123.58 29.7063H125.05ZM129.63 27.9563V34.1907H128.365V26.7942H129.596L129.63 27.9563ZM131.94 26.7532L131.934 27.929C131.829 27.9062 131.729 27.8925 131.633 27.8879C131.542 27.8788 131.437 27.8743 131.318 27.8743C131.027 27.8743 130.769 27.9198 130.546 28.011C130.323 28.1021 130.134 28.2297 129.979 28.3938C129.824 28.5579 129.701 28.7538 129.609 28.9817C129.523 29.205 129.466 29.4511 129.439 29.72L129.083 29.925C129.083 29.4784 129.126 29.0592 129.213 28.6672C129.304 28.2753 129.443 27.929 129.63 27.6282C129.817 27.3228 130.054 27.0859 130.341 26.9172C130.633 26.7441 130.979 26.6575 131.38 26.6575C131.471 26.6575 131.576 26.6689 131.694 26.6917C131.813 26.7099 131.895 26.7304 131.94 26.7532ZM136.828 26.7942V27.7649H132.829V26.7942H136.828ZM134.182 24.9963H135.447V32.3586C135.447 32.6093 135.486 32.7984 135.563 32.926C135.641 33.0536 135.741 33.1379 135.864 33.179C135.987 33.22 136.119 33.2405 136.261 33.2405C136.365 33.2405 136.475 33.2314 136.589 33.2131C136.707 33.1903 136.796 33.1721 136.855 33.1584L136.862 34.1907C136.762 34.2226 136.63 34.2522 136.466 34.2795C136.306 34.3114 136.112 34.3274 135.885 34.3274C135.575 34.3274 135.29 34.2659 135.03 34.1428C134.77 34.0198 134.563 33.8147 134.408 33.5276C134.258 33.2359 134.182 32.844 134.182 32.3518V24.9963ZM139.856 28.3733V34.1907H138.591V26.7942H139.788L139.856 28.3733ZM139.555 30.2122L139.029 30.1917C139.033 29.6858 139.109 29.2187 139.254 28.7903C139.4 28.3573 139.605 27.9814 139.87 27.6624C140.134 27.3433 140.448 27.0972 140.813 26.9241C141.182 26.7463 141.59 26.6575 142.037 26.6575C142.401 26.6575 142.729 26.7076 143.021 26.8079C143.313 26.9036 143.561 27.0585 143.766 27.2727C143.976 27.4869 144.135 27.7649 144.245 28.1067C144.354 28.4439 144.409 28.8564 144.409 29.344V34.1907H143.137V29.3303C143.137 28.943 143.08 28.6331 142.966 28.4006C142.852 28.1637 142.686 27.9928 142.467 27.8879C142.249 27.7786 141.98 27.7239 141.661 27.7239C141.346 27.7239 141.059 27.79 140.799 27.9221C140.544 28.0543 140.323 28.2366 140.136 28.469C139.954 28.7014 139.81 28.968 139.706 29.2688C139.605 29.565 139.555 29.8795 139.555 30.2122ZM149.679 34.3274C149.164 34.3274 148.697 34.2408 148.278 34.0676C147.863 33.8899 147.505 33.6415 147.204 33.3225C146.908 33.0035 146.68 32.6252 146.521 32.1877C146.361 31.7502 146.281 31.2717 146.281 30.7522V30.4651C146.281 29.8635 146.37 29.328 146.548 28.8586C146.726 28.3847 146.967 27.9836 147.273 27.6555C147.578 27.3274 147.924 27.079 148.312 26.9104C148.699 26.7418 149.1 26.6575 149.515 26.6575C150.043 26.6575 150.499 26.7486 150.882 26.9309C151.269 27.1132 151.586 27.3684 151.832 27.6965C152.078 28.0201 152.261 28.4029 152.379 28.845C152.498 29.2825 152.557 29.761 152.557 30.2805V30.8479H147.033V29.8157H151.292V29.72C151.274 29.3918 151.206 29.0728 151.087 28.7629C150.973 28.453 150.791 28.1978 150.54 27.9973C150.29 27.7968 149.948 27.6965 149.515 27.6965C149.228 27.6965 148.963 27.7581 148.722 27.8811C148.48 27.9996 148.273 28.1773 148.1 28.4143C147.927 28.6513 147.792 28.9407 147.696 29.2825C147.601 29.6243 147.553 30.0185 147.553 30.4651V30.7522C147.553 31.1031 147.601 31.4335 147.696 31.7434C147.797 32.0487 147.94 32.3176 148.127 32.55C148.319 32.7825 148.549 32.9648 148.818 33.0969C149.091 33.2291 149.401 33.2952 149.747 33.2952C150.194 33.2952 150.572 33.204 150.882 33.0217C151.192 32.8394 151.463 32.5956 151.696 32.2903L152.461 32.8987C152.302 33.1402 152.099 33.3704 151.853 33.5891C151.607 33.8079 151.304 33.9856 150.944 34.1223C150.588 34.259 150.167 34.3274 149.679 34.3274ZM155.578 27.9563V34.1907H154.313V26.7942H155.544L155.578 27.9563ZM157.889 26.7532L157.882 27.929C157.777 27.9062 157.677 27.8925 157.581 27.8879C157.49 27.8788 157.385 27.8743 157.267 27.8743C156.975 27.8743 156.717 27.9198 156.494 28.011C156.271 28.1021 156.082 28.2297 155.927 28.3938C155.772 28.5579 155.649 28.7538 155.558 28.9817C155.471 29.205 155.414 29.4511 155.387 29.72L155.031 29.925C155.031 29.4784 155.074 29.0592 155.161 28.6672C155.252 28.2753 155.391 27.929 155.578 27.6282C155.765 27.3228 156.002 27.0859 156.289 26.9172C156.581 26.7441 156.927 26.6575 157.328 26.6575C157.419 26.6575 157.524 26.6689 157.643 26.6917C157.761 26.7099 157.843 26.7304 157.889 26.7532Z" fill="#181016"/>
</svg>
