<svg width="180" height="180" viewBox="0 0 180 180" fill="none" xmlns="http://www.w3.org/2000/svg">
<rect width="180" height="180" fill="#181016"/>
<path fill-rule="evenodd" clip-rule="evenodd" d="M162.16 5.67652L110.593 57.3119H26.7426C24.5317 57.3119 21.9619 58.9273 21.005 60.9152L0.491185 103.533C-0.466711 105.523 0.0180727 108.4 1.58294 109.967L50.3001 158.772L58.6249 167.105L64.6944 173.19L76.2991 184.814C77.8594 186.376 80.3853 186.38 81.9474 184.815L146.383 120.252C147.943 118.689 149.207 115.631 149.207 113.416V85.7812L154.764 80.0923C156.305 78.514 157.555 75.4429 157.555 73.233V51.1682L162.16 46.741L167.93 40.957C169.491 39.3919 170.757 36.3329 170.757 34.1309V5.07123C170.757 0.652612 168.224 -0.393876 165.107 2.72689L162.16 5.67652ZM56.0901 152.686L134.231 74.8929L148.954 60.0565V76.6869L143.375 82.3287L140.627 85.1142L139.656 86.1057L64.417 160.995L56.0901 152.686ZM78.9959 175.531L70.6253 167.197L140.819 97.2731L140.879 97.2021V113.869L78.9959 175.531ZM162.682 34.6836L141.105 56.2264L137.263 60.053L130.808 66.5017L50.6856 146.46L42.3624 138.157L114.611 66.0529L162.682 18.0659V34.6836Z" fill="#EC1115" transform="scale(0.9) translate(10, 10)"/>
</svg>